<svg width="375" height="661" viewBox="0 0 375 661" fill="none" xmlns="http://www.w3.org/2000/svg">
<path d="M335.048 137.972L335.048 167.023L360.1 167.023L360.1 137.972L335.048 137.972ZM356.168 142.491L356.168 162.375L338.867 162.375L338.867 142.491L356.168 142.491Z" fill="#F9A62D" fill-opacity="0.7"/>
<path d="M207.301 48.991L207.301 31.1812L203.588 31.1812L203.588 43.5844L187.144 43.5844L187.144 31.1812L183.431 31.1812L183.431 48.991L207.301 48.991Z" fill="#F9A62D" fill-opacity="0.7"/>
<path d="M32.551 458.197L32.551 487.306L57.8027 487.306L57.8027 458.197L32.551 458.197ZM53.7625 462.595L53.7625 482.519L36.4791 482.519L36.4791 462.595L53.7625 462.595Z" fill="#F9A62D" fill-opacity="0.7"/>
<path d="M356.688 492.5L370.615 492.5L370.615 488.484L360.916 488.484L360.916 470.811L370.615 470.811L370.615 466.91L356.688 466.91L356.688 492.5Z" fill="#F9A62D" fill-opacity="0.7"/>
<path d="M249.893 142.848C249.893 133.274 243.159 125.511 234.854 125.511C226.549 125.511 219.815 133.274 219.815 142.848C219.815 152.422 226.549 160.184 234.854 160.184C243.271 160.184 249.893 152.292 249.893 142.848ZM223.967 142.848C223.967 135.732 229.018 130.04 235.078 130.04C241.139 130.04 246.189 135.861 246.189 142.848C246.189 149.834 241.139 155.656 235.078 155.656C229.018 155.656 223.967 149.834 223.967 142.848Z" fill="#F9A62D" fill-opacity="0.7"/>
<path d="M137.5 367.259C137.5 357.685 130.766 349.923 122.461 349.923C114.156 349.923 107.422 357.685 107.422 367.259C107.422 376.833 114.156 384.595 122.461 384.595C130.654 384.595 137.5 376.962 137.5 367.259ZM111.35 367.259C111.35 360.143 116.401 354.451 122.461 354.451C128.522 354.451 133.572 360.273 133.572 367.259C133.572 374.375 128.522 380.067 122.461 380.067C116.401 380.067 111.35 374.375 111.35 367.259Z" fill="#F9A62D" fill-opacity="0.7"/>
<path d="M266.372 331.67C266.372 322.096 259.638 314.333 251.333 314.333C243.028 314.333 236.294 322.096 236.294 331.67C236.294 341.244 243.028 349.006 251.333 349.006C259.751 349.006 266.372 341.114 266.372 331.67ZM240.447 331.67C240.447 324.554 245.497 318.861 251.558 318.861C257.73 318.861 262.668 324.683 262.668 331.67C262.668 338.785 257.618 344.478 251.558 344.478C245.273 344.219 240.447 338.656 240.447 331.67Z" fill="#F9A62D" fill-opacity="0.7"/>
<path d="M259.02 601.855C259.02 592.281 252.286 584.519 243.981 584.519C235.676 584.519 228.942 592.281 228.942 601.855C228.942 611.429 235.676 619.192 243.981 619.192C252.398 619.192 259.02 611.3 259.02 601.855ZM233.094 601.855C233.094 594.739 238.145 589.047 244.205 589.047C250.378 589.047 255.316 594.869 255.316 601.855C255.316 608.971 250.266 614.663 244.205 614.663C237.92 614.534 233.094 608.971 233.094 601.855Z" fill="#F9A62D" fill-opacity="0.7"/>
<path d="M379.477 353.832L356.749 354.63L357.525 327.885L334.576 328.683L335.352 301.672L310.074 301.938L310.074 306.462L331.25 306.462L330.584 333.606L353.534 332.675L352.758 359.553L375.486 358.622L374.709 385.5L388.679 385.101L388.679 380.444L378.812 380.71L379.477 353.832Z" fill="#F9A62D" fill-opacity="0.7"/>
<path d="M91.12 23.0438L67.6344 37.327L90.0384 52.8893L66.5529 67.1725L89.2659 82.6281L67.6344 96.6981L71.4972 99.5761L96.9914 82.6281L74.4329 67.279L98.0729 52.9959L75.5144 37.5402L99 23.257L76.596 7.69473L89.8839 -0.192994L81.3858 -0.192994L68.5615 7.58814L91.12 23.0438Z" fill="#F9A62D" fill-opacity="0.7"/>
<path d="M240.808 492.088C243.538 488.75 246.861 484.935 244.369 480.404C241.639 475.635 235.942 476.112 230.839 476.47C225.498 476.827 222.174 477.066 220.631 474.324C219.207 471.82 220.988 469.197 224.192 465.501C227.278 461.566 231.076 456.797 228.109 451.551C225.142 446.306 218.851 446.782 213.985 447.379C209.119 447.975 205.914 447.975 204.371 445.59C202.828 443.086 204.727 439.867 207.932 435.694C210.899 431.76 214.222 426.991 211.611 422.699C209.119 418.168 203.184 418.407 197.844 418.765C193.333 419.003 189.179 419.122 187.874 416.738C186.687 414.711 188.467 412.207 191.197 408.511C194.283 404.338 198.318 399.212 195.114 393.727C192.147 388.601 186.924 389.435 182.177 390.031C176.717 390.866 173.157 390.985 171.02 387.051L167.341 389.077C171.02 395.754 177.548 394.8 182.889 394.204C187.992 393.608 190.366 393.37 191.553 395.754C193.096 398.496 191.316 401.477 187.992 405.769C185.025 409.703 181.702 413.996 184.313 418.765C186.806 423.534 192.977 423.057 198.2 422.937C202.472 422.699 206.626 422.58 208.051 424.726C209.238 426.753 207.457 429.495 204.49 433.191C201.523 437.364 197.606 442.49 200.573 447.617C203.303 452.505 209.238 451.909 214.104 451.551C219.445 450.955 222.531 450.717 224.073 453.578C225.616 456.32 223.717 458.943 220.513 462.997C217.546 466.693 213.866 471.462 216.834 476.589C219.801 481.715 225.616 481.358 230.957 480.762C236.061 480.404 239.147 480.166 240.571 482.55C241.52 484.338 240.571 485.888 237.604 489.227C234.043 493.161 229.414 498.645 233.924 506.634L237.604 504.607C234.755 499.48 236.892 496.619 240.808 492.088Z" fill="#F9A62D" fill-opacity="0.7"/>
<path d="M107.94 259.908C111.221 254.244 113.548 251.007 117.252 253.273L118.521 247.932C112.067 244.533 108.152 250.845 105.084 256.186C102.121 261.202 100.534 263.468 98.3117 262.012C95.5607 260.393 95.1374 255.862 95.0316 248.417C94.82 241.782 94.5026 234.176 90.1643 231.748C85.8261 229.321 81.8053 234.985 78.4194 239.84C75.6683 243.886 72.8115 247.932 70.6953 246.475C68.7907 245.343 68.4733 241.135 68.05 234.661C67.7326 227.703 67.3094 219.125 62.2305 216.212C57.3632 213.461 53.8714 219.125 50.9088 224.304C47.7345 229.321 45.5125 232.558 42.8672 230.939C40.222 229.645 40.1161 225.113 39.9045 218.154C39.6929 211.519 39.5871 203.427 34.614 200.838C29.7467 198.087 25.8318 203.751 22.5516 209.092C19.3773 213.947 17.2611 216.86 15.0391 215.727C13.2403 214.594 13.1346 212.328 13.1346 206.017C13.1346 198.734 13.1345 188.862 5.62202 184.816L4.35229 190.157C9.11375 192.908 9.4312 197.925 9.4312 206.017C9.4312 211.843 9.4312 218.64 13.7694 221.067C18.3193 223.819 22.0226 218.154 25.0911 212.976C28.3712 207.959 30.699 204.722 33.1327 206.017C35.5663 207.311 35.7779 211.681 35.8837 218.316C36.0954 224.951 36.2012 233.367 41.2801 236.28C46.359 239.193 50.1681 233.043 53.1308 228.026C56.3051 223.009 58.2097 219.935 60.6433 221.391C63.0769 222.686 63.606 227.541 63.9234 234.823C64.2409 241.459 64.6641 249.227 69.0023 251.654C73.3405 254.082 77.2555 248.417 80.5356 243.562C83.4983 239.355 86.1436 235.471 88.3656 236.604C90.2702 237.736 90.5876 241.62 90.7992 248.094C91.1166 255.053 91.3283 263.954 96.6188 266.867C102.015 269.942 105.189 264.601 107.94 259.908Z" fill="#F9A62D" fill-opacity="0.7"/>
<path d="M262.367 253.06C258.645 249.497 256.66 247.198 257.653 244.555C258.645 242.141 261.747 241.911 266.709 241.911C271.672 241.911 277.751 241.911 279.984 236.625C282.217 231.453 277.875 227.315 274.401 224.097C270.928 220.879 268.818 218.581 269.935 216.167C270.928 213.524 274.65 213.294 279.984 213.179C284.947 212.949 290.406 212.834 292.515 208.467C294.376 204.1 290.406 199.962 287.18 196.285C284.327 193.296 281.473 190.193 282.466 187.895C283.334 185.941 286.312 185.596 291.026 185.596C296.113 185.366 302.564 185.366 304.797 179.85C307.031 174.908 303.185 171.46 299.711 168.472C295.617 164.909 293.383 162.61 294.996 158.588L291.15 157.094C288.297 163.53 293.011 167.782 296.733 171.115C300.455 174.333 301.82 176.057 300.827 178.356C299.587 181.229 296.113 181.344 290.778 181.574C285.815 181.804 280.357 181.804 278.496 186.286C276.386 190.883 280.605 195.02 284.078 198.583C286.932 201.571 289.661 204.445 288.793 206.743C287.925 208.697 284.699 209.042 279.984 209.157C274.898 209.387 268.446 209.501 266.213 214.673C264.104 219.615 268.074 223.408 271.796 226.626C275.518 230.074 277.503 232.372 276.51 235.016C275.27 237.659 272.168 237.889 267.082 237.889C262.367 237.889 256.164 237.889 254.179 243.061C251.946 248.233 256.04 252.14 259.762 255.588C263.236 259.036 265.345 261.334 264.228 263.518C263.36 265.242 261.623 265.472 257.032 265.242C251.697 265.012 244.502 264.897 241.276 272.597L245.122 274.092C247.231 269.15 251.077 268.92 257.032 269.15C261.375 269.379 266.213 269.494 268.074 265.012C269.935 260.3 265.841 256.507 262.367 253.06Z" fill="#F9A62D" fill-opacity="0.7"/>
<path d="M120.094 537.544C114.59 536.98 111.262 536.415 110.366 533.82C109.47 531.451 111.902 529.307 115.614 526.599C119.454 523.778 124.318 520.055 122.398 514.865C120.478 509.674 114.206 509.11 109.086 508.659C103.966 508.32 100.894 507.756 99.7421 505.274C98.8461 502.679 101.406 500.422 105.502 497.037C109.342 494.104 113.566 490.493 112.03 486.205C110.366 481.692 104.35 481.015 99.1021 480.225C94.6222 479.661 90.2703 478.871 89.3743 476.727C88.7343 474.696 90.9103 472.778 94.4942 469.957C98.4621 467.024 103.326 463.075 101.534 457.659C99.6141 452.581 94.1102 452.243 89.2463 452.017C83.4864 451.679 79.9024 451.115 78.6224 447.391L74.6545 448.519C76.9584 455.064 83.7424 455.628 88.9903 455.741C94.2382 456.079 96.6702 456.53 97.4382 458.674C98.4622 461.495 95.9022 463.752 91.6783 466.911C87.8383 469.845 83.6144 473.117 85.2784 477.743C86.9423 482.369 93.0862 483.159 98.4622 483.949C102.942 484.513 107.166 485.077 107.934 487.446C108.574 489.477 106.27 491.508 102.686 494.329C98.8462 497.488 93.9822 501.212 95.6462 506.402C97.5661 511.48 103.326 511.818 108.574 512.382C113.822 512.721 117.278 513.285 118.302 515.88C119.326 518.475 116.766 520.506 112.798 523.553C108.958 526.373 104.35 529.871 106.014 534.949C107.934 540.026 114.078 540.703 119.326 541.267C124.574 541.831 127.774 542.396 128.67 544.652C129.31 546.57 127.774 547.586 124.19 550.068C119.966 553.002 114.078 556.951 116.766 564.849L120.734 563.721C119.07 558.869 121.758 556.5 126.622 553.115C130.206 550.745 134.046 548.037 132.51 543.637C131.358 538.672 125.342 538.108 120.094 537.544Z" fill="#F9A62D" fill-opacity="0.7"/>
<path d="M290.351 122.289C293.378 122.289 295.801 121.475 295.801 120.457L295.801 62.7528L285.203 62.7528L285.203 120.457C284.598 121.475 287.323 122.289 290.351 122.289Z" fill="#F9A62D" fill-opacity="0.7"/>
<path d="M115.513 622.447L131.957 622.447L131.957 634.691L135.67 634.691L135.67 616.881L111.8 616.881L111.8 634.691L115.513 634.691L115.513 622.447Z" fill="#F9A62D" fill-opacity="0.7"/>
<path d="M29.4531 595.888L11.1753 575.176L8.30139 578.277L23.4755 595.516L15.5436 603.082L21.8661 603.082L29.4531 595.888Z" fill="#F9A62D" fill-opacity="0.7"/>
<path d="M224.17 650.402C224.17 649.307 223.066 648.432 221.685 648.432C220.305 648.432 219.2 649.307 219.2 650.402L219.2 660.689L224.032 660.689L224.032 650.402L224.17 650.402Z" fill="#F9A62D" fill-opacity="0.7"/>
<path d="M224.239 278.339C225.119 277.385 225.119 276.024 224.569 274.934C223.8 273.844 222.7 273.844 221.821 274.525L161.802 334.043C161.252 334.452 161.032 335.133 161.032 335.814C161.032 336.223 161.252 336.904 161.362 337.448C162.131 338.538 163.231 338.538 164.11 337.857L224.239 278.339Z" fill="#F9A62D" fill-opacity="0.7"/>
<path d="M-31.9706 469.354C-32.5739 468.415 -33.7803 467.945 -34.7455 468.532C-35.7107 469.119 -36.1932 470.293 -35.59 471.233L5.91234 542.73C6.27428 543.317 6.75685 543.669 7.48072 543.669C7.84266 543.669 8.44591 543.669 8.9285 543.434C9.89367 542.847 10.3762 541.673 9.773 540.734L-31.9706 469.354Z" fill="#F9A62D" fill-opacity="0.7"/>
<path d="M183.615 99.7983C171.552 73.5977 139.751 68.5905 138.532 68.3576C137.314 68.1247 136.095 68.9398 135.974 70.1043C135.974 70.4536 135.974 70.9194 136.217 71.2688C136.461 72.0839 137.192 72.4332 138.045 72.6661C138.41 72.6661 168.628 77.4405 179.716 101.545C185.564 114.005 183.371 127.396 180.568 136.246C177.522 146.028 172.892 153.015 172.77 153.247C172.161 154.179 172.405 155.576 173.38 156.275C174.354 156.857 175.817 156.624 176.548 155.693C177.157 154.296 195.677 125.999 183.615 99.7983Z" fill="#F9A62D" fill-opacity="0.7"/>
<path d="M259.463 488.942C260.022 488.551 260.246 487.64 260.022 486.728C260.022 486.468 254.316 455.995 270.987 436.071C279.714 425.783 291.686 422.658 300.19 421.877C309.588 420.965 316.861 422.528 316.973 422.528C318.092 422.788 318.987 421.877 319.21 420.835C319.434 419.533 318.651 418.491 317.756 418.23C316.413 417.97 286.539 411.589 268.414 433.076C250.064 454.563 256.218 486.468 256.442 487.77C256.666 489.072 257.784 489.723 258.791 489.463C258.903 489.333 259.239 489.072 259.463 488.942Z" fill="#F9A62D" fill-opacity="0.7"/>
<path d="M40.1824 342.89C57.8589 320.781 50.7657 289.803 50.428 288.261C50.0902 286.975 49.0769 286.333 48.0636 286.59C47.7258 286.847 47.2755 286.847 47.1629 287.233C46.5999 287.875 46.3748 288.518 46.5999 289.418C46.5999 289.675 53.4679 319.624 37.255 339.805C28.9234 350.473 16.989 354.072 8.43221 355.101C-0.912688 356.386 -8.34357 355.101 -8.45616 355.101C-9.58206 354.844 -10.4828 355.743 -10.7079 357.029C-10.9331 358.314 -10.145 359.342 -9.01911 359.599C-7.66804 360.114 22.6185 364.998 40.1824 342.89Z" fill="#F9A62D" fill-opacity="0.7"/>
<path d="M166.927 197.234C167.238 195.289 166.615 193.343 165.681 193.149L93.9552 156.186C92.9172 155.603 91.8792 156.77 91.7754 158.521C91.7754 158.91 91.7754 159.104 91.7754 159.494C91.7754 161.05 92.2944 162.412 93.1248 162.801L164.851 199.763C165.577 200.152 166.615 199.179 166.927 197.234Z" fill="#F9A62D" fill-opacity="0.7"/>
<path d="M317.542 640.146L321.773 640.146L321.649 613.767L307.461 614.341L307.461 618.355L317.293 618.011L317.542 640.146Z" fill="#F9A62D" fill-opacity="0.7"/>
<path d="M35.0458 81.0419C35.955 80.4103 36.1823 78.8945 35.614 77.884C35.0458 76.8735 33.6819 76.6208 32.7727 77.2524C32.4317 77.6314 28.1129 80.7892 23.2259 86.2208L23.2259 92.6628C29.2495 85.5892 35.0458 81.1682 35.0458 81.0419Z" fill="#F9A62D" fill-opacity="0.7"/>
<path d="M25.9928 156.021C26.2203 155.643 26.334 155.39 26.334 155.012C26.334 154.129 25.9928 153.498 25.4241 153.12C25.1966 153.12 20.5331 149.588 15.301 143.281L15.301 149.714C19.3957 154.129 23.0354 156.652 23.3767 156.778C24.2866 157.282 25.4241 157.03 25.9928 156.021Z" fill="#F9A62D" fill-opacity="0.7"/>
<path d="M228.137 527.159C227.819 525.871 226.549 525.066 225.701 525.549L166.826 564.345L166.826 570.462L227.184 530.539C228.137 530.378 228.666 528.607 228.137 527.159Z" fill="#F9A62D" fill-opacity="0.7"/>
<path d="M293.615 500.866C293.615 500.055 293.983 499.359 294.842 498.896C295.823 498.317 297.295 498.664 297.663 499.823L324.033 549.411C324.646 550.338 324.278 551.728 323.052 552.076C322.07 552.655 320.599 552.307 320.231 551.149L293.86 501.561C293.615 501.445 293.615 500.981 293.615 500.866Z" fill="#F9A62D" fill-opacity="0.7"/>
</svg>
