<svg width="27" height="24" viewBox="0 0 27 24" fill="none" xmlns="http://www.w3.org/2000/svg">
<g clip-path="url(#clip0)">
<path d="M14.4993 0.195652C13.9883 -0.0652174 13.4135 -0.0652174 12.9025 0.195652C12.9025 0.195652 12.8386 0.195652 12.8386 0.26087L5.94025 6.26087H0.510989C0.255495 6.26087 0 6.52174 0 6.78261V16.6957C0 16.8261 0.0638736 16.9565 0.127747 17.087C0.255495 17.1522 0.383242 17.2174 0.510989 17.2174H5.94025L12.8386 23.7391L12.9025 23.8043C13.158 23.9348 13.4135 24.0652 13.7328 24.0652C13.9883 24.0652 14.2438 24 14.4993 23.8696C15.0103 23.6087 15.3297 23.0217 15.3297 22.4348V1.63043C15.3297 1.04348 15.0103 0.521739 14.4993 0.195652ZM14.3077 22.3696C14.3077 22.5652 14.1799 22.7609 13.9883 22.8913C13.9245 22.9565 13.7328 23.0217 13.4773 22.8913L6.64286 16.4348V14.087C6.64286 13.8261 6.38736 13.5652 6.13187 13.5652C5.87637 13.5652 5.62088 13.8261 5.62088 14.087V16.1739H1.02198V7.30435H5.62088V9.3913C5.62088 9.65217 5.87637 9.91304 6.13187 9.91304C6.38736 9.91304 6.64286 9.65217 6.64286 9.3913V7.04348L13.4773 1.1087C13.7328 0.978261 13.9245 1.04348 13.9883 1.1087C14.1799 1.23913 14.3077 1.43478 14.3077 1.63043V22.3696Z" fill="#FF9429"/>
<path d="M19.8005 2.08693C19.545 2.02171 19.2257 2.15215 19.1618 2.41302C19.0979 2.67389 19.2257 2.99998 19.4812 3.06519C23.122 4.36954 25.5491 7.82606 25.5491 11.7391C25.5491 15.6522 23.122 19.1087 19.4812 20.3478C19.2257 20.413 19.0979 20.7391 19.1618 21C19.2257 21.1956 19.4173 21.3261 19.6728 21.3261C19.7366 21.3261 19.8005 21.3261 19.8644 21.3261C23.8884 19.8913 26.635 16.0435 26.635 11.6739C26.5711 7.36954 23.8884 3.52171 19.8005 2.08693Z" fill="#FF9429"/>
<path d="M21.9731 11.7392C21.9731 8.60873 19.9291 5.8696 16.9909 4.95656C16.7354 4.89134 16.4161 5.02178 16.3522 5.28265C16.2883 5.54352 16.4161 5.8696 16.6716 5.93482C19.1626 6.65221 20.8872 9.06526 20.8872 11.674C20.8872 14.3479 19.1626 16.6957 16.6716 17.4131C16.4161 17.4783 16.2244 17.8044 16.3522 18.0653C16.4161 18.3261 16.6077 18.4566 16.8632 18.4566C16.927 18.4566 16.927 18.4566 16.9909 18.4566C19.9291 17.6087 21.9731 14.8696 21.9731 11.7392Z" fill="#FF9429"/>
</g>
<defs>
<clipPath id="clip0">
<rect width="26.5714" height="24" fill="white"/>
</clipPath>
</defs>
</svg>
