<svg width="375" height="54" viewBox="0 0 375 54" fill="none" xmlns="http://www.w3.org/2000/svg">
<mask id="mask0" mask-type="alpha" maskUnits="userSpaceOnUse" x="0" y="0" width="377" height="54">
<path d="M0 0H376V54H0V0Z" fill="#F8820B"/>
</mask>
<g mask="url(#mask0)">
<path d="M360 54L366 54L366 52.7556L361.821 52.7556L361.821 47.2444L366 47.2444L366 46L360 46L360 54Z" fill="#F9A62D" fill-opacity="0.7"/>
<path d="M224 -4L214 -4L214 4L224 4L224 -4ZM222.489 2.72L215.644 2.72L215.644 -2.75556L222.489 -2.75555L222.489 2.72Z" fill="#F9A62D" fill-opacity="0.7"/>
<path d="M254.5 31C257.537 31 260 28.7612 260 26C260 23.2388 257.537 21 254.5 21C251.463 21 249 23.2388 249 26C249 28.7239 251.422 31 254.5 31ZM254.5 22.306C256.757 22.306 258.563 23.9851 258.563 26C258.563 28.0149 256.716 29.694 254.5 29.694C252.243 29.694 250.437 28.0149 250.437 26C250.437 23.9851 252.243 22.306 254.5 22.306Z" fill="#F9A62D" fill-opacity="0.7"/>
<path d="M368.314 15.3286L363.59 7.36668L358.442 14.9619L353.718 7L348.606 14.7L343.952 7.36667L343 8.6762L348.606 17.3191L353.683 9.67143L358.407 17.6857L363.519 10.0381L368.244 18L373.391 10.4048L376 14.9095L376 12.0286L373.426 7.68095L368.314 15.3286Z" fill="#F9A62D" fill-opacity="0.7"/>
<path d="M212.865 64.5753C213.982 65.4513 215.258 66.5177 216.774 65.7179C218.369 64.8419 218.209 63.0138 218.09 61.3761C217.97 59.6622 217.89 58.5958 218.808 58.1007C219.645 57.6436 220.522 58.2149 221.759 59.2433C223.075 60.2335 224.67 61.4523 226.425 60.5001C228.179 59.548 228.02 57.5294 227.821 55.9679C227.621 54.4063 227.621 53.378 228.419 52.8829C229.256 52.3878 230.333 52.9971 231.729 54.0255C233.045 54.9776 234.64 56.044 236.076 55.2061C237.591 54.4063 237.511 52.502 237.392 50.7881C237.312 49.3409 237.272 48.0079 238.07 47.5889C238.748 47.208 239.585 47.7793 240.822 48.6553C242.217 49.6456 243.932 50.9405 245.767 49.9122C247.482 48.96 247.202 47.2842 247.003 45.7608C246.724 44.0088 246.684 42.8662 248 42.1807L247.322 41C245.089 42.1807 245.408 44.2754 245.607 45.9893C245.807 47.627 245.886 48.3887 245.089 48.7696C244.171 49.2647 243.174 48.6934 241.739 47.627C240.423 46.6748 238.987 45.6084 237.392 46.4463C235.797 47.2461 235.956 49.2266 235.996 50.9024C236.076 52.2735 236.116 53.6065 235.398 54.0636C234.72 54.4444 233.803 53.8731 232.566 52.921C231.17 51.9688 229.456 50.712 227.741 51.6641C226.106 52.5401 226.305 54.4444 226.425 56.0059C226.624 57.7198 226.704 58.7101 225.747 59.2052C224.83 59.7003 223.952 59.0909 222.596 58.0626C221.36 57.1104 219.765 55.9298 218.05 56.8819C216.335 57.8341 216.455 59.7003 216.654 61.4142C216.774 63.0519 216.853 64.0421 216.056 64.4992C215.458 64.8038 214.939 64.4992 213.823 63.547C212.506 62.4044 210.672 60.9191 208 62.3663L208.678 63.547C210.393 62.6329 211.35 63.3185 212.865 64.5753Z" fill="#F9A62D" fill-opacity="0.7"/>
<path d="M289.655 21.3855C291.567 22.506 292.659 23.3012 291.895 24.5663L293.697 25C294.844 22.7952 292.714 21.4578 290.912 20.4096C289.218 19.3976 288.454 18.8554 288.945 18.0964C289.491 17.1566 291.021 17.012 293.533 16.9759C295.773 16.9036 298.34 16.7952 299.16 15.3132C299.979 13.8313 298.067 12.4578 296.428 11.3012C295.063 10.3614 293.697 9.38554 294.189 8.66265C294.571 8.01205 295.991 7.90361 298.176 7.75904C300.525 7.6506 303.42 7.50602 304.403 5.77108C305.332 4.10844 303.42 2.91566 301.672 1.90361C299.979 0.819275 298.886 0.0602479 299.433 -0.843366C299.87 -1.74698 301.399 -1.78313 303.748 -1.85542C305.987 -1.92771 308.718 -1.96385 309.592 -3.66265C310.521 -5.3253 308.609 -6.66265 306.807 -7.78313C305.168 -8.86746 304.185 -9.59036 304.567 -10.3494C304.95 -10.9639 305.714 -11 307.844 -11C310.302 -11 313.634 -11 315 -13.5663L313.197 -14C312.269 -12.3735 310.576 -12.265 307.844 -12.265C305.878 -12.265 303.584 -12.265 302.765 -10.7831C301.836 -9.22891 303.748 -7.96385 305.496 -6.91566C307.189 -5.79518 308.281 -4.99999 307.844 -4.16867C307.408 -3.33735 305.933 -3.26505 303.693 -3.22891C301.454 -3.15662 298.613 -3.12047 297.63 -1.38554C296.647 0.349404 298.723 1.6506 300.416 2.66265C302.109 3.74699 303.147 4.39759 302.655 5.22892C302.218 6.06024 300.58 6.24097 298.122 6.3494C295.882 6.45783 293.26 6.60241 292.441 8.08433C291.622 9.56626 293.533 10.9036 295.172 12.0241C296.592 13.0361 297.903 13.9398 297.521 14.6988C297.139 15.3494 295.828 15.4578 293.643 15.5301C291.294 15.6386 288.29 15.7108 287.307 17.5181C286.269 19.3614 288.071 20.4458 289.655 21.3855Z" fill="#F9A62D" fill-opacity="0.7"/>
<path d="M198.066 24.6141C198.254 22.7228 198.441 21.5793 199.303 21.2714C200.089 20.9635 200.801 21.7992 201.7 23.0747C202.637 24.3942 203.873 26.0656 205.597 25.4058C207.32 24.7461 207.507 22.5909 207.657 20.8315C207.769 19.0722 207.957 18.0166 208.781 17.6208C209.643 17.3129 210.392 18.1925 211.516 19.6C212.49 20.9195 213.689 22.371 215.112 21.8432C216.611 21.2714 216.836 19.2042 217.098 17.4008C217.285 15.8614 217.548 14.366 218.259 14.0581C218.934 13.8382 219.571 14.5859 220.507 15.8174C221.481 17.1809 222.793 18.8523 224.591 18.2365C226.277 17.5768 226.389 15.6855 226.464 14.0141C226.576 12.0349 226.764 10.8033 228 10.3635L227.625 9C225.452 9.7917 225.265 12.1228 225.228 13.9262C225.115 15.7295 224.965 16.5652 224.254 16.8291C223.317 17.1809 222.568 16.3013 221.519 14.8498C220.545 13.5303 219.458 12.0788 217.922 12.6506C216.386 13.2224 216.124 15.3336 215.862 17.1809C215.674 18.7203 215.487 20.1718 214.7 20.4357C214.026 20.6556 213.352 19.8639 212.415 18.6324C211.366 17.3129 210.13 15.6415 208.406 16.2133C206.72 16.873 206.608 18.8523 206.421 20.6556C206.308 22.4589 206.121 23.6465 205.259 23.9983C204.398 24.3502 203.723 23.4705 202.712 22.1071C201.775 20.7876 200.614 19.2042 198.928 19.7759C197.242 20.4357 197.017 22.5469 196.83 24.3502C196.643 26.1535 196.455 27.2531 195.706 27.561C195.069 27.7809 194.732 27.2531 193.908 26.0216C192.934 24.5701 191.622 22.5469 189 23.4705L189.375 24.834C190.986 24.2622 191.772 25.1859 192.896 26.8573C193.683 28.0888 194.582 29.4083 196.043 28.8805C197.692 28.4847 197.879 26.4174 198.066 24.6141Z" fill="#F9A62D" fill-opacity="0.7"/>
<path d="M169.438 23.2444L169.438 28.7556L166 28.7556L166 30L171 30L171 22L166 22L166 23.2444L169.438 23.2444Z" fill="#F9A62D" fill-opacity="0.7"/>
<path d="M283.601 58.7674C283.912 59.0563 284.357 59.0563 284.713 58.8757C285.069 58.6229 285.069 58.2617 284.847 57.9728L265.399 38.2528C265.266 38.0722 265.043 38 264.821 38C264.687 38 264.465 38.0722 264.287 38.1083C263.931 38.3612 263.931 38.7223 264.153 39.0113L283.601 58.7674Z" fill="#F9A62D" fill-opacity="0.7"/>
<path d="M342.658 45.6614C351.265 41.696 352.91 31.2417 352.987 30.8412C353.063 30.4406 352.796 30.0401 352.413 30C352.298 30 352.145 30 352.031 30.0801C351.763 30.1602 351.648 30.4006 351.571 30.6809C351.571 30.8011 350.003 40.7347 342.084 44.3796C337.991 46.3023 333.592 45.5813 330.684 44.66C327.471 43.6587 325.175 42.1366 325.099 42.0965C324.793 41.8963 324.334 41.9764 324.104 42.2968C323.913 42.6172 323.99 43.0979 324.296 43.3382C324.755 43.5385 334.051 49.6268 342.658 45.6614Z" fill="#F9A62D" fill-opacity="0.7"/>
<path d="M262.692 -1.98637C269.874 3.91876 279.938 1.54917 280.439 1.43634C280.857 1.3235 281.065 0.984999 280.982 0.646489C280.898 0.533652 280.898 0.383196 280.773 0.345583C280.564 0.157522 280.355 0.0822973 280.063 0.157522C279.98 0.157522 270.25 2.45188 263.694 -2.9643C260.228 -5.74761 259.059 -9.73451 258.725 -12.593C258.307 -15.7149 258.725 -18.1973 258.725 -18.2349C258.808 -18.611 258.516 -18.9119 258.098 -18.9871C257.681 -19.0624 257.347 -18.7991 257.263 -18.4229C257.096 -17.9716 255.509 -7.85389 262.692 -1.98637Z" fill="#F9A62D" fill-opacity="0.7"/>
<path d="M310.895 40.9731C311.561 41.0766 312.227 40.8696 312.293 40.5592L324.948 16.7244C325.148 16.3794 324.748 16.0345 324.149 16C324.016 16 323.949 16 323.816 16C323.283 16 322.817 16.1725 322.684 16.4484L310.029 40.2832C309.896 40.5247 310.229 40.8696 310.895 40.9731Z" fill="#F9A62D" fill-opacity="0.7"/>
<path d="M201.417 60.9318C201.846 60.8285 202.114 60.4154 201.953 60.14L189.037 41L187 41L200.291 60.622C200.345 60.9318 200.935 61.1039 201.417 60.9318Z" fill="#F9A62D" fill-opacity="0.7"/>
<path d="M141 54L147 54L147 52.7556L142.821 52.7556L142.821 47.2444L147 47.2444L147 46L141 46L141 54Z" fill="#F9A62D" fill-opacity="0.7"/>
<path d="M5 -4L-5 -4L-5 4L5 4L5 -4ZM3.48889 2.72L-3.35555 2.72L-3.35555 -2.75556L3.48889 -2.75555L3.48889 2.72Z" fill="#F9A62D" fill-opacity="0.7"/>
<path d="M35.5 31C38.5373 31 41 28.7612 41 26C41 23.2388 38.5373 21 35.5 21C32.4627 21 30 23.2388 30 26C30 28.7239 32.4216 31 35.5 31ZM35.5 22.306C37.7575 22.306 39.5634 23.9851 39.5634 26C39.5634 28.0149 37.7164 29.694 35.5 29.694C33.2425 29.694 31.4366 28.0149 31.4366 26C31.4366 23.9851 33.2425 22.306 35.5 22.306Z" fill="#F9A62D" fill-opacity="0.7"/>
<path d="M149.314 15.3286L144.59 7.36668L139.442 14.9619L134.718 7L129.606 14.7L124.952 7.36667L124 8.6762L129.606 17.3191L134.683 9.67143L139.407 17.6857L144.519 10.0381L149.244 18L154.391 10.4048L157 14.9095L157 12.0286L154.426 7.68095L149.314 15.3286Z" fill="#F9A62D" fill-opacity="0.7"/>
<path d="M-6.13461 64.5753C-5.01796 65.4513 -3.74178 66.5177 -2.22632 65.7179C-0.631109 64.8419 -0.790634 63.0138 -0.910276 61.3761C-1.02992 59.6622 -1.10968 58.5958 -0.192434 58.1007C0.645055 57.6436 1.52243 58.2149 2.75872 59.2433C4.07478 60.2335 5.66998 61.4523 7.42472 60.5001C9.17946 59.548 9.01993 57.5294 8.82053 55.9679C8.62113 54.4063 8.62113 53.378 9.41874 52.8829C10.2562 52.3878 11.333 52.9971 12.7288 54.0255C14.0449 54.9776 15.6401 56.044 17.0758 55.2061C18.5912 54.4063 18.5115 52.502 18.3918 50.7881C18.3121 49.3409 18.2722 48.0079 19.0698 47.5889C19.7478 47.208 20.5852 47.7793 21.8215 48.6553C23.2173 49.6456 24.9322 50.9405 26.7667 49.9122C28.4816 48.96 28.2024 47.2842 28.003 45.7608C27.7238 44.0088 27.6839 42.8662 29 42.1807L28.322 41C26.0887 42.1807 26.4078 44.2754 26.6072 45.9893C26.8066 47.627 26.8863 48.3887 26.0887 48.7696C25.1715 49.2647 24.1745 48.6934 22.7388 47.627C21.4227 46.6748 19.987 45.6084 18.3918 46.4463C16.7966 47.2461 16.9561 49.2266 16.996 50.9024C17.0758 52.2735 17.1156 53.6065 16.3978 54.0636C15.7198 54.4444 14.8026 53.8731 13.5663 52.921C12.1705 51.9688 10.4556 50.712 8.74078 51.6641C7.10568 52.5401 7.30508 54.4444 7.42472 56.0059C7.62412 57.7198 7.70389 58.7101 6.74676 59.2052C5.82951 59.7003 4.95213 59.0909 3.5962 58.0626C2.35991 57.1104 0.764697 55.9298 -0.950158 56.8819C-2.66501 57.8341 -2.54537 59.7003 -2.34597 61.4142C-2.22633 63.0519 -2.14657 64.0421 -2.94418 64.4992C-3.54238 64.8038 -4.06083 64.4992 -5.17748 63.547C-6.49353 62.4044 -8.32802 60.9191 -11 62.3663L-10.322 63.547C-8.60719 62.6329 -7.65006 63.3185 -6.13461 64.5753Z" fill="#F9A62D" fill-opacity="0.7"/>
<path d="M70.6553 21.3855C72.567 22.506 73.6595 23.3012 72.8948 24.5663L74.6973 25C75.8444 22.7952 73.7141 21.4578 71.9116 20.4096C70.2183 19.3976 69.4536 18.8554 69.9452 18.0964C70.4914 17.1566 72.0208 17.012 74.5334 16.9759C76.773 16.9036 79.3402 16.7952 80.1595 15.3132C80.9789 13.8313 79.0671 12.4578 77.4284 11.3012C76.0629 10.3614 74.6973 9.38554 75.1889 8.66265C75.5713 8.01205 76.9915 7.90361 79.1763 7.75904C81.5251 7.6506 84.4201 7.50602 85.4033 5.77108C86.3319 4.10844 84.4201 2.91566 82.6722 1.90361C80.9789 0.819275 79.8864 0.0602479 80.4327 -0.843366C80.8696 -1.74698 82.3991 -1.78313 84.7478 -1.85542C86.9873 -1.92771 89.7184 -1.96385 90.5924 -3.66265C91.521 -5.3253 89.6092 -6.66265 87.8067 -7.78313C86.168 -8.86746 85.1848 -9.59036 85.5671 -10.3494C85.9495 -10.9639 86.7142 -11 88.8445 -11C91.3025 -11 94.6344 -11 96 -13.5663L94.1975 -14C93.2689 -12.3735 91.5756 -12.265 88.8445 -12.265C86.8781 -12.265 84.5839 -12.265 83.7646 -10.7831C82.836 -9.22891 84.7478 -7.96385 86.4957 -6.91566C88.189 -5.79518 89.2815 -4.99999 88.8445 -4.16867C88.4075 -3.33735 86.9327 -3.26505 84.6932 -3.22891C82.4537 -3.15662 79.6133 -3.12047 78.6301 -1.38554C77.6469 0.349404 79.7226 1.6506 81.4159 2.66265C83.1091 3.74699 84.147 4.39759 83.6554 5.22892C83.2184 6.06024 81.5797 6.24097 79.1217 6.3494C76.8822 6.45783 74.2603 6.60241 73.441 8.08433C72.6217 9.56626 74.5335 10.9036 76.1721 12.0241C77.5923 13.0361 78.9032 13.9398 78.5209 14.6988C78.1385 15.3494 76.8276 15.4578 74.6427 15.5301C72.2939 15.6386 69.2897 15.7108 68.3065 17.5181C67.2687 19.3614 69.0712 20.4458 70.6553 21.3855Z" fill="#F9A62D" fill-opacity="0.7"/>
<path d="M-20.9337 24.6141C-20.7464 22.7228 -20.5591 21.5793 -19.6974 21.2714C-18.9107 20.9635 -18.1989 21.7992 -17.2997 23.0747C-16.3631 24.3942 -15.1268 26.0656 -13.4035 25.4058C-11.6801 24.7461 -11.4928 22.5909 -11.3429 20.8315C-11.2306 19.0722 -11.0432 18.0166 -10.219 17.6208C-9.35735 17.3129 -8.60807 18.1925 -7.48415 19.6C-6.51009 20.9195 -5.31124 22.371 -3.8876 21.8432C-2.38905 21.2714 -2.16427 19.2042 -1.90202 17.4008C-1.7147 15.8614 -1.45245 14.366 -0.740632 14.0581C-0.0662809 13.8382 0.570607 14.5859 1.50721 15.8174C2.48127 17.1809 3.79251 18.8523 5.59078 18.2365C7.27666 17.5768 7.38905 15.6855 7.46398 14.0141C7.57637 12.0349 7.76369 10.8033 9 10.3635L8.62536 9C6.45245 9.7917 6.26513 12.1228 6.22767 13.9262C6.11528 15.7295 5.96542 16.5652 5.2536 16.8291C4.317 17.1809 3.56772 16.3013 2.51873 14.8498C1.54466 13.5303 0.458217 12.0788 -1.07781 12.6506C-2.61383 13.2224 -2.87608 15.3336 -3.13832 17.1809C-3.32564 18.7203 -3.51297 20.1718 -4.29971 20.4357C-4.97406 20.6556 -5.64842 19.8639 -6.58502 18.6324C-7.63401 17.3129 -8.87032 15.6415 -10.5937 16.2133C-12.2795 16.873 -12.3919 18.8523 -12.5793 20.6556C-12.6916 22.4589 -12.879 23.6465 -13.7406 23.9983C-14.6023 24.3502 -15.2767 23.4705 -16.2882 22.1071C-17.2248 20.7876 -18.3862 19.2042 -20.072 19.7759C-21.7579 20.4357 -21.9827 22.5469 -22.17 24.3502C-22.3573 26.1535 -22.5447 27.2531 -23.2939 27.561C-23.9308 27.7809 -24.268 27.2531 -25.0922 26.0216C-26.0663 24.5701 -27.3775 22.5469 -30 23.4705L-29.6254 24.834C-28.0144 24.2622 -27.2277 25.1859 -26.1037 26.8573C-25.317 28.0888 -24.4179 29.4083 -22.9568 28.8805C-21.3084 28.4847 -21.121 26.4174 -20.9337 24.6141Z" fill="#F9A62D" fill-opacity="0.7"/>
<path d="M64.6008 58.7674C64.9123 59.0563 65.3574 59.0563 65.7134 58.8757C66.0694 58.6229 66.0694 58.2617 65.8469 57.9728L46.3992 38.2528C46.2657 38.0722 46.0432 38 45.8207 38C45.6871 38 45.4646 38.0722 45.2866 38.1083C44.9306 38.3612 44.9306 38.7223 45.1531 39.0113L64.6008 58.7674Z" fill="#F9A62D" fill-opacity="0.7"/>
<path d="M123.658 45.6614C132.265 41.696 133.91 31.2417 133.987 30.8412C134.063 30.4406 133.796 30.0401 133.413 30C133.298 30 133.145 30 133.031 30.0801C132.763 30.1602 132.648 30.4006 132.571 30.6809C132.571 30.8011 131.003 40.7347 123.084 44.3796C118.991 46.3023 114.592 45.5813 111.684 44.66C108.471 43.6587 106.175 42.1366 106.099 42.0965C105.793 41.8963 105.334 41.9764 105.104 42.2968C104.913 42.6172 104.99 43.0979 105.296 43.3382C105.755 43.5385 115.051 49.6268 123.658 45.6614Z" fill="#F9A62D" fill-opacity="0.7"/>
<path d="M43.6917 -1.98637C50.8741 3.91876 60.9379 1.54917 61.439 1.43634C61.8566 1.3235 62.0654 0.984999 61.9819 0.646489C61.8983 0.533652 61.8983 0.383196 61.7731 0.345583C61.5643 0.157522 61.3555 0.0822973 61.0632 0.157522C60.9796 0.157522 51.2499 2.45188 44.6939 -2.9643C41.2279 -5.74761 40.0587 -9.73451 39.7246 -12.593C39.307 -15.7149 39.7246 -18.1973 39.7246 -18.2349C39.8081 -18.611 39.5158 -18.9119 39.0982 -18.9871C38.6806 -19.0624 38.3466 -18.7991 38.2631 -18.4229C38.096 -17.9716 36.5092 -7.85389 43.6917 -1.98637Z" fill="#F9A62D" fill-opacity="0.7"/>
<path d="M91.8948 40.9731C92.5608 41.0766 93.2268 40.8696 93.2935 40.5592L105.948 16.7244C106.148 16.3794 105.748 16.0345 105.149 16C105.016 16 104.949 16 104.816 16C104.283 16 103.817 16.1725 103.684 16.4484L91.0289 40.2832C90.8957 40.5247 91.2288 40.8696 91.8948 40.9731Z" fill="#F9A62D" fill-opacity="0.7"/>
</g>
</svg>
