<svg width="29" height="24" viewBox="0 0 29 24" fill="none" xmlns="http://www.w3.org/2000/svg">
<g clip-path="url(#clip0)">
<path d="M26.3529 0H15.5294C14.9412 0 14.4706 0.235294 14.1176 0.647059C13.7647 0.235294 13.2941 0 12.7059 0H1.88235C0.823529 0 0 0.823529 0 1.88235V20.2353C0 21.2941 0.823529 22.1176 1.88235 22.1176H12.2353C12.7647 22.1176 13.6471 22.7647 13.6471 23.5294C13.6471 23.7647 13.8824 24 14.1176 24C14.3529 24 14.5882 23.7647 14.5882 23.5294C14.5882 22.7647 15.4706 22.1176 16 22.1176H26.3529C27.4118 22.1176 28.2353 21.2941 28.2353 20.2353V1.88235C28.2353 0.823529 27.4118 0 26.3529 0ZM13.6471 21.7059C13.2353 21.3529 12.7059 21.1765 12.2353 21.1765H1.88235C1.35294 21.1765 0.941177 20.7647 0.941177 20.2353V1.88235C0.941177 1.35294 1.35294 0.941177 1.88235 0.941177H12.7059C13.2353 0.941177 13.6471 1.35294 13.6471 1.88235V21.7059ZM27.2941 20.2353C27.2941 20.7647 26.8824 21.1765 26.3529 21.1765H16C15.5294 21.1765 15 21.3529 14.5882 21.7059V1.88235C14.5882 1.35294 15 0.941177 15.5294 0.941177H26.3529C26.8824 0.941177 27.2941 1.35294 27.2941 1.88235V20.2353Z" fill="#FF9429"/>
</g>
<defs>
<clipPath id="clip0">
<rect width="28.2353" height="24" fill="white"/>
</clipPath>
</defs>
</svg>
