<svg width="19" height="19" viewBox="0 0 19 19" fill="none" xmlns="http://www.w3.org/2000/svg">
<path d="M18.0714 7.35198H16.3083C16.0438 7.35198 15.7794 7.17483 15.6912 6.90909C15.6031 6.64336 15.6471 6.37762 15.8235 6.15618L17.1017 4.8718C17.278 4.69464 17.3661 4.42891 17.3661 4.16317C17.3661 3.89744 17.278 3.6317 17.1017 3.45455L15.5149 1.86014C15.1623 1.50583 14.5012 1.50583 14.1485 1.86014L12.7822 3.18881C12.6059 3.36597 12.4296 3.41026 12.2973 3.41026C12.121 3.41026 11.9447 3.32168 11.8125 3.2331C11.7243 3.14452 11.5921 2.96737 11.5921 2.74592V0.974359C11.5921 0.44289 11.1513 0 10.6224 0H8.37453C7.84561 0 7.40485 0.44289 7.40485 0.974359V2.74592C7.40485 3.18881 7.05223 3.45455 6.69962 3.45455C6.56739 3.45455 6.39109 3.41026 6.21478 3.2331L4.93656 1.94872C4.58395 1.59441 3.92281 1.59441 3.57019 1.94872L1.98344 3.49883C1.80714 3.67599 1.71898 3.94173 1.71898 4.20746C1.71898 4.47319 1.80714 4.73893 1.98344 4.91608L3.26166 6.20047C3.48204 6.42191 3.52612 6.68765 3.39389 6.95338C3.26166 7.21911 3.04128 7.39627 2.77682 7.39627H1.01376C0.440765 7.35198 0 7.79487 0 8.32634V10.6294C0 11.1608 0.440765 11.6037 0.969682 11.6037H2.73274C2.9972 11.6037 3.26166 11.7809 3.34981 12.0466C3.48204 12.3124 3.43796 12.5781 3.26166 12.7552L1.98344 14.0396C1.80714 14.2168 1.71898 14.4825 1.71898 14.7483C1.71898 15.014 1.80714 15.2797 1.98344 15.4569L3.57019 17.0513C3.92281 17.4056 4.58395 17.4056 4.93656 17.0513L6.21478 15.7669C6.39109 15.5897 6.56739 15.5455 6.69962 15.5455C7.05223 15.5455 7.40485 15.8112 7.40485 16.2541V18.0256C7.40485 18.5571 7.84561 19 8.37453 19H10.6665C11.1954 19 11.6362 18.5571 11.6362 18.0256V16.2541C11.6362 15.8112 11.9888 15.5455 12.3414 15.5455C12.4736 15.5455 12.6499 15.5897 12.8263 15.7669L14.1045 17.0513C14.4571 17.4056 15.1182 17.4056 15.4708 17.0513L17.0576 15.4569C17.2339 15.2797 17.3221 15.014 17.3221 14.7483C17.3221 14.4825 17.2339 14.2611 17.0576 14.0396L15.7794 12.7552C15.559 12.5338 15.5149 12.2681 15.6471 12.0023C15.7794 11.7366 15.9998 11.5594 16.2642 11.5594H18.0273C18.5562 11.5594 18.997 11.1166 18.997 10.5851V8.32634C19.041 7.79487 18.6003 7.35198 18.0714 7.35198ZM11.9888 9.47786C11.9888 10.8508 10.8869 11.958 9.52052 11.958C8.15415 11.958 7.05223 10.8508 7.05223 9.47786C7.05223 8.1049 8.15415 6.99767 9.52052 6.99767C10.8869 6.99767 11.9888 8.1049 11.9888 9.47786Z" fill="#737373"/>
</svg>
