<svg width="22" height="21" viewBox="0 0 22 21" fill="none" xmlns="http://www.w3.org/2000/svg">
<path d="M0.0752325 10.0001C-0.0247679 10.2001 -0.0247679 10.4001 0.0752324 10.6001C0.0752324 10.7001 0.175231 10.8001 0.275231 10.9001L9.8752 20.5001C10.1752 20.8001 10.6752 20.8001 10.9752 20.5001C11.2752 20.2001 11.2752 19.7001 10.9752 19.4001L2.77523 11.2001L20.4754 11.2001C20.916 11.2001 21.2754 10.7001 21.2754 10.3001C21.2754 9.9001 20.8754 9.5001 20.4754 9.5001L2.67523 9.5001L10.9752 1.3001C11.2752 1.0001 11.2752 0.500096 10.9752 0.200097C10.7752 9.63568e-05 10.5752 9.63393e-05 10.3752 9.63219e-05C10.1752 9.63044e-05 9.9752 0.100097 9.7752 0.200097L0.175233 9.8001C0.175233 9.8001 0.0752325 9.9001 0.0752325 10.0001Z" fill="#979797"/>
</svg>
