<svg width="48" height="48" viewBox="0 0 48 48" fill="none" xmlns="http://www.w3.org/2000/svg">
<g clip-path="url(#clip0)">
<path d="M24 0C10.8 0 0 10.8 0 24C0 37.2 10.8 48 24 48C37.2 48 48 37.2 48 24C48 10.8 37.2 0 24 0ZM24 46.4C11.6 46.4 1.6 36.4 1.6 24C1.6 11.6 11.6 1.6 24 1.6C36.4 1.6 46.4 11.6 46.4 24C46.4 36.4 36.4 46.4 24 46.4Z" fill="white"/>
<path d="M24.0002 0.8C24.0002 1.2 24.3002 1.6 24.8002 1.6C37.6002 2 47.7002 13.3 46.3002 26.5C45.2002 36.8 36.9002 45.1 26.6002 46.2C13.1002 47.7 1.60023 37.1 1.60023 23.9C1.60023 21.8 1.90023 19.8 2.40023 17.9C2.50023 17.4 2.20023 16.9 1.60023 16.9C1.20023 16.9 0.900233 17.1 0.800233 17.5C0.000232816 20.4 -0.299767 23.5 0.100233 26.8C1.40023 37.8 10.3002 46.7 21.3002 47.8C35.8002 49.4 48.0002 38.1 48.0002 24C48.0002 11 37.7002 0.4 24.8002 0C24.4002 0 24.0002 0.4 24.0002 0.8Z" fill="#FF9429"/>
</g>
<path d="M21.3613 17.7969L15.4727 31H13.5781L19.4473 18.2656H11.752V16.7812H21.3613V17.7969ZM32.205 24.9355C32.205 27.0514 31.8437 28.6237 31.1211 29.6523C30.3984 30.681 29.2688 31.1953 27.7324 31.1953C26.2155 31.1953 25.0924 30.694 24.3633 29.6914C23.6341 28.6823 23.2565 27.1784 23.2304 25.1797V22.7676C23.2304 20.6777 23.5918 19.125 24.3144 18.1094C25.0371 17.0938 26.1699 16.5859 27.7129 16.5859C29.2428 16.5859 30.3691 17.0775 31.0918 18.0605C31.8144 19.0371 32.1855 20.5475 32.205 22.5918V24.9355ZM30.3984 22.4648C30.3984 20.9349 30.1836 19.8216 29.7539 19.125C29.3242 18.4219 28.6438 18.0703 27.7129 18.0703C26.7884 18.0703 26.1146 18.4186 25.6914 19.1152C25.2682 19.8118 25.0501 20.8828 25.0371 22.3281V25.2188C25.0371 26.7552 25.2584 27.8913 25.7011 28.627C26.1504 29.3561 26.8274 29.7207 27.7324 29.7207C28.6243 29.7207 29.2851 29.3757 29.7148 28.6855C30.151 27.9954 30.3789 26.9082 30.3984 25.4238V22.4648ZM33.7275 25.2578C33.7275 24.8314 33.8626 24.4798 34.1328 24.2031C34.4062 23.9264 34.7561 23.7881 35.1826 23.7881C35.6155 23.7881 35.9654 23.9281 36.2324 24.208C36.5025 24.4847 36.6376 24.8444 36.6376 25.2871V25.6338C36.6376 26.0635 36.5009 26.415 36.2275 26.6885C35.9573 26.9587 35.6122 27.0938 35.1923 27.0938C34.7691 27.0938 34.4192 26.9587 34.1425 26.6885C33.8658 26.415 33.7275 26.0521 33.7275 25.5996V25.2578ZM34.4013 25.6338C34.4013 25.8877 34.4729 26.0977 34.6161 26.2637C34.7594 26.4264 34.9514 26.5078 35.1923 26.5078C35.4234 26.5078 35.609 26.4281 35.749 26.2686C35.8922 26.109 35.9638 25.891 35.9638 25.6143V25.2578C35.9638 25.0039 35.8938 24.7939 35.7538 24.6279C35.6139 24.4619 35.4234 24.3789 35.1826 24.3789C34.9417 24.3789 34.7512 24.4619 34.6113 24.6279C34.4713 24.7939 34.4013 25.0104 34.4013 25.2773V25.6338ZM37.1894 29.2568C37.1894 28.8304 37.3245 28.4805 37.5947 28.207C37.8681 27.9303 38.218 27.792 38.6445 27.792C39.0709 27.792 39.4208 27.9287 39.6943 28.2021C39.9677 28.4756 40.1044 28.8385 40.1044 29.291V29.6377C40.1044 30.0641 39.9677 30.4157 39.6943 30.6924C39.4241 30.9658 39.0774 31.1025 38.6542 31.1025C38.2311 31.1025 37.8811 30.9674 37.6044 30.6973C37.3277 30.4238 37.1894 30.0609 37.1894 29.6084V29.2568ZM37.8632 29.6377C37.8632 29.8949 37.9348 30.1064 38.0781 30.2725C38.2213 30.4352 38.4134 30.5166 38.6542 30.5166C38.8886 30.5166 39.0758 30.4368 39.2158 30.2773C39.3557 30.1146 39.4257 29.8949 39.4257 29.6182V29.2568C39.4257 28.9997 39.3541 28.7897 39.2109 28.627C39.0709 28.4642 38.8821 28.3828 38.6445 28.3828C38.4134 28.3828 38.2245 28.4642 38.0781 28.627C37.9348 28.7865 37.8632 29.0029 37.8632 29.2764V29.6377ZM35.3974 30.4629L34.8847 30.1406L38.3564 24.584L38.8691 24.9062L35.3974 30.4629Z" fill="white"/>
<defs>
<clipPath id="clip0">
<rect width="48" height="48" fill="white"/>
</clipPath>
</defs>
</svg>
