<svg width="48" height="48" viewBox="0 0 48 48" fill="none" xmlns="http://www.w3.org/2000/svg">
<path d="M24 0C10.8 0 0 10.8 0 24C0 37.2 10.8 48 24 48C37.2 48 48 37.2 48 24C48 10.8 37.2 0 24 0ZM24 46.4C11.6 46.4 1.6 36.4 1.6 24C1.6 11.6 11.6 1.6 24 1.6C36.4 1.6 46.4 11.6 46.4 24C46.4 36.4 36.4 46.4 24 46.4Z" fill="#DADADA"/>
<g clip-path="url(#clip0)">
<path d="M33.6458 23.4531L18.151 14.0781C17.8854 14 17.6198 14 17.3542 14.0781C17.1771 14.1562 17 14.3906 17 14.625V33.375C17 33.6094 17.1771 33.8438 17.3542 33.9219C17.4427 34 17.5312 34 17.7083 34C17.8854 34 17.974 34 18.151 33.9219L33.7344 24.5469C33.9115 24.4688 34.0885 24.2344 34.0885 24C34 23.7656 33.9115 23.6094 33.6458 23.4531Z" fill="#FF9429"/>
</g>
<defs>
<clipPath id="clip0">
<rect width="17" height="20" fill="white" transform="translate(17 14)"/>
</clipPath>
</defs>
</svg>
