<svg width="22" height="21" viewBox="0 0 22 21" fill="none" xmlns="http://www.w3.org/2000/svg">
<path d="M21.2002 10.725C21.3002 10.525 21.3002 10.325 21.2002 10.125C21.2002 10.025 21.1002 9.925 21.0002 9.825L11.4002 0.225C11.1002 -0.075 10.6002 -0.075 10.3002 0.225C10.0002 0.525 10.0002 1.025 10.3002 1.325L18.5002 9.525L0.8 9.525C0.359375 9.525 0 10.025 0 10.425C0 10.825 0.4 11.225 0.8 11.225L18.6002 11.225L10.3002 19.425C10.0002 19.725 10.0002 20.225 10.3002 20.525C10.5002 20.725 10.7002 20.725 10.9002 20.725C11.1002 20.725 11.3002 20.625 11.5002 20.525L21.1002 10.925C21.1002 10.925 21.2002 10.825 21.2002 10.725Z" fill="#979797"/>
</svg>
