<svg width="24" height="24" viewBox="0 0 24 24" fill="none" xmlns="http://www.w3.org/2000/svg">
<path d="M24 22.0979L16.8951 14.993C18.0699 13.4266 18.7972 11.4685 18.7972 9.3986C18.7972 4.1958 14.6014 0 9.3986 0C4.1958 0 0 4.1958 0 9.3986C0 14.6014 4.1958 18.7972 9.3986 18.7972C11.5245 18.7972 13.4266 18.0699 14.993 16.8951L22.0979 24L24 22.0979ZM0.895105 9.3986C0.895105 4.6993 4.6993 0.895105 9.3986 0.895105C14.0979 0.895105 17.9021 4.6993 17.9021 9.3986C17.9021 14.0979 14.0979 17.9021 9.3986 17.9021C4.6993 17.9021 0.895105 14.0979 0.895105 9.3986ZM15.9441 16.1678C16 16.1119 16.1119 16 16.1678 15.9441C16.2238 15.8881 16.2797 15.8322 16.3916 15.7203L22.7692 22.0979L22.1538 22.7133L15.7203 16.3357C15.7762 16.2797 15.8322 16.2238 15.9441 16.1678Z" fill="#FF9429"/>
</svg>
