<svg width="22" height="21" viewBox="0 0 22 21" fill="none" xmlns="http://www.w3.org/2000/svg">
<path d="M8.51876 0C3.83344 0 0 3.69145 0 8.20322C0 12.715 3.83344 16.4064 8.51876 16.4064C13.2041 16.4064 17.0375 12.715 17.0375 8.20322C17.0375 3.69145 13.2041 0 8.51876 0ZM8.51876 14.3556C5.00477 14.3556 2.12969 11.587 2.12969 8.20322C2.12969 4.81939 5.00477 2.05081 8.51876 2.05081C12.0327 2.05081 14.9078 4.81939 14.9078 8.20322C14.9078 11.587 12.0327 14.3556 8.51876 14.3556Z" fill="#FF9429"/>
<path d="M21.2477 18.8247L14.9229 12.7342C14.5071 12.3338 13.8329 12.3338 13.417 12.7342C13.0012 13.1347 13.0012 13.7839 13.417 14.1844L19.7418 20.2749C20.1577 20.6753 20.8319 20.6753 21.2477 20.2749C21.6636 19.8744 21.6636 19.2252 21.2477 18.8247Z" fill="#FF9429"/>
</svg>
