<svg width="24" height="24" viewBox="0 0 24 24" fill="none" xmlns="http://www.w3.org/2000/svg">
<g clip-path="url(#clip0)">
<path d="M3.11111 6C4.66667 6 5.94444 4.875 6.16667 3.42857H23.5556C23.7778 3.42857 24 3.21429 24 3C24 2.78571 23.7778 2.57143 23.5556 2.57143H6.16667C5.94444 1.125 4.66667 0 3.11111 0C1.38889 0 0 1.33929 0 3C0 4.66071 1.38889 6 3.11111 6ZM3.11111 0.857143C4.33333 0.857143 5.33333 1.82143 5.33333 3C5.33333 4.17857 4.33333 5.14286 3.11111 5.14286C1.88889 5.14286 0.888889 4.17857 0.888889 3C0.888889 1.82143 1.88889 0.857143 3.11111 0.857143Z" fill="#BFBFBF"/>
<path d="M20.8889 18C19.3333 18 18.0556 19.125 17.8333 20.5714H0.444444C0.222222 20.5714 0 20.7857 0 21C0 21.2143 0.222222 21.4286 0.444444 21.4286H17.8333C18.0556 22.875 19.3333 24 20.8889 24C22.6111 24 24 22.6607 24 21C24 19.3393 22.6111 18 20.8889 18ZM20.8889 23.1429C19.6667 23.1429 18.6667 22.1786 18.6667 21C18.6667 19.8214 19.6667 18.8571 20.8889 18.8571C22.1111 18.8571 23.1111 19.8214 23.1111 21C23.1111 22.1786 22.1111 23.1429 20.8889 23.1429Z" fill="#BFBFBF"/>
<path d="M23.5556 11.5715H15.2778C15.1111 10.0179 13.7222 8.83936 12.1111 8.83936C10.4444 8.83936 9.11111 10.0715 8.94444 11.5715H0.444444C0.222222 11.5715 0 11.7858 0 12.0001C0 12.2144 0.222222 12.4286 0.444444 12.4286H8.94444C9.22222 13.8751 10.5 15.0001 12.1111 15.0001C13.6667 15.0001 15 13.8751 15.2778 12.4286H23.6111C23.8333 12.4286 24.0556 12.2144 24.0556 12.0001C24 11.7858 23.7778 11.5715 23.5556 11.5715ZM12.1111 14.1429C10.8333 14.1429 9.77778 13.1251 9.77778 11.8929C9.77778 10.6608 10.8333 9.64293 12.1111 9.64293C13.3889 9.64293 14.4444 10.6608 14.4444 11.8929C14.3889 13.1251 13.3889 14.1429 12.1111 14.1429Z" fill="#BFBFBF"/>
</g>
<defs>
<clipPath id="clip0">
<rect width="24" height="24" fill="white"/>
</clipPath>
</defs>
</svg>
