<svg width="48" height="48" viewBox="0 0 48 48" fill="none" xmlns="http://www.w3.org/2000/svg">
<path d="M25.1909 12.2161C24.6929 11.897 24.1328 11.9608 23.6349 12.2161C23.5726 12.2799 23.5726 12.2799 23.5104 12.3437L16.9129 18.6619C16.8506 18.6619 16.7884 18.6619 16.6639 18.6619H12.556C11.6846 18.6619 11 19.364 11 20.2574V26.7671C11 27.6606 11.6846 28.3627 12.556 28.3627H16.7261C16.7884 28.3627 16.9129 28.3627 16.9751 28.4265L23.5726 34.7447L23.6349 34.8085C23.8838 34.9362 24.1328 35 24.444 35C24.6929 35 24.9419 34.9362 25.1909 34.8085C25.6888 34.5533 26 33.9789 26 33.4045V13.6201C25.9378 13.0457 25.6266 12.5352 25.1909 12.2161Z" fill="#FF9429"/>
<path d="M31.9571 16.1737C31.7404 15.9421 31.3792 15.9421 31.1625 16.1737C30.9458 16.4053 30.9458 16.7913 31.1625 17.0229C34.7742 20.883 34.7742 27.1363 31.1625 30.9964C30.9458 31.228 30.9458 31.614 31.1625 31.8456C31.307 32 31.4515 32 31.5959 32C31.7404 32 31.8849 31.9228 32.0293 31.8456C36.0022 27.5995 36.0022 20.497 31.9571 16.1737Z" fill="#FF9429"/>
<path d="M29.9164 18.1636C29.7089 17.9455 29.3631 17.9455 29.1556 18.1636C28.9481 18.3818 28.9481 18.7455 29.1556 18.9636C31.5071 21.4364 31.5071 25.5091 29.1556 28.0545C28.9481 28.2727 28.9481 28.6364 29.1556 28.8545C29.2939 29 29.4323 29 29.5706 29C29.7089 29 29.8472 28.9273 29.9856 28.8545C32.6829 25.9455 32.6829 21.1455 29.9164 18.1636Z" fill="#FF9429"/>
<path d="M33.9044 13.1651C33.6997 12.945 33.3584 12.945 33.1536 13.1651C32.9488 13.3852 32.9488 13.752 33.1536 13.9721C35.5427 16.5397 36.8396 19.9144 36.8396 23.5092C36.8396 27.1039 35.5427 30.552 33.1536 33.0463C32.9488 33.2664 32.9488 33.6332 33.1536 33.8533C33.2901 34 33.4266 34 33.5631 34C33.6997 34 33.8362 33.9266 33.9727 33.8533C36.5666 31.0655 38 27.3974 38 23.4358C37.9317 19.6943 36.4983 15.9528 33.9044 13.1651Z" fill="#FF9429"/>
<path d="M24 0C10.8 0 0 10.8 0 24C0 37.2 10.8 48 24 48C37.2 48 48 37.2 48 24C48 10.8 37.2 0 24 0ZM24 46.4C11.6 46.4 1.6 36.4 1.6 24C1.6 11.6 11.6 1.6 24 1.6C36.4 1.6 46.4 11.6 46.4 24C46.4 36.4 36.4 46.4 24 46.4Z" fill="#DADADA"/>
</svg>
