<svg width="56" height="53" viewBox="0 0 56 53" fill="none" xmlns="http://www.w3.org/2000/svg">
<path d="M29.6976 53C44.2245 53 56.0008 41.1355 56.0008 26.5C56.0008 11.8645 44.2245 0 29.6976 0C15.1708 0 3.39453 11.8645 3.39453 26.5C3.39453 41.1355 15.1708 53 29.6976 53Z" fill="#FF4A4A"/>
<path d="M33.3729 43.953H38.7467C41.5043 43.953 43.7669 46.2326 43.7669 49.0108V50.7917H15.5547V48.9396C15.5547 46.1613 17.8173 43.8818 20.5749 43.8818H25.9487" fill="#FFD348"/>
<path d="M17.6061 31.4866C15.6263 31.4866 14 29.9906 14 28.2097C14 26.4288 15.6263 24.9328 17.6061 24.9328H41.7173C43.6971 24.9328 45.3233 26.4288 45.3233 28.2097C45.3233 29.9906 43.6971 31.4866 41.7173 31.4866" fill="#EDC59D"/>
<path d="M41.7163 17.8092V29.9194C41.7163 36.6156 36.3425 42.0296 29.696 42.0296C23.0495 42.0296 17.6758 36.6156 17.6758 29.9194V17.8092" fill="#FFDCB6"/>
<path d="M29.6253 42.1008C26.3021 42.1008 23.3324 40.7473 21.2111 38.539C19.0192 36.3307 17.6758 33.3387 17.6758 29.9194V17.8092H23.1202V29.9194C23.1202 33.2675 23.8273 36.3307 25.0293 38.539C26.1607 40.6761 27.7869 42.0296 29.6253 42.1008Z" fill="#EDC59D"/>
<path d="M39.2422 17.7379V20.5874C39.2422 22.0121 40.3735 23.1519 41.7877 23.1519V14.3898" fill="#20A5D3"/>
<path d="M46.8779 2.13715C44.9688 2.13715 43.3425 3.70435 43.3425 5.62774C43.3425 3.70435 41.787 2.13715 39.8779 2.13715C37.9688 2.13715 36.4132 3.70435 36.4132 5.62774H25.3122C21.0697 5.62774 17.6758 9.04709 17.6758 13.3213V23.0807C22.1303 23.1519 21.4233 17.738 21.4233 17.738H38.393C44.9688 17.738 50.3426 12.3952 50.4133 5.77021C50.3426 3.84682 48.787 2.13715 46.8779 2.13715Z" fill="#20A5D3"/>
<path d="M40.6573 2.27962C40.3745 2.20838 40.0916 2.13715 39.7381 2.13715C37.829 2.13715 36.2734 3.70435 36.2734 5.62774H38.0411C38.1118 4.06053 39.1724 2.70704 40.6573 2.27962Z" fill="#1090B2"/>
<path d="M47.7276 2.27962C47.4448 2.20838 47.1619 2.13715 46.8084 2.13715C44.8993 2.13715 43.3438 3.70435 43.3438 5.62774H45.1114C45.1114 4.06053 46.2427 2.70704 47.7276 2.27962Z" fill="#1090B2"/>
<path d="M33.5153 41.4596V42.8844C33.5153 44.4516 32.5254 45.8763 31.182 46.4462C30.7577 46.6599 30.2628 46.8024 29.6971 46.8024C27.5759 46.8024 25.8789 45.0927 25.8789 42.9556V41.5309H33.5153V41.4596Z" fill="#EDC59D"/>
<path d="M33.5143 41.4596V42.8844C33.5143 44.4516 32.5244 45.8763 31.181 46.4462C29.8376 45.8763 28.8477 44.4516 28.8477 42.8844V41.4596H33.5143Z" fill="#FFDCB6"/>
<path d="M25.3132 5.69894H28.3536C24.1112 5.69894 20.7173 9.1183 20.7173 13.3925V21.6559C20.1516 22.5108 19.2324 23.2231 17.6768 23.1519V13.3925C17.6061 9.1183 21.0708 5.69894 25.3132 5.69894Z" fill="#1090B2"/>
<path d="M26.1608 43.953C23.4032 43.953 21.1406 46.2326 21.1406 49.0108V50.7917H15.5547V48.9396C15.5547 46.1613 17.8173 43.8818 20.5749 43.8818H26.1608V43.953Z" fill="#EABB36"/>
<path d="M20.434 3.77554H3.39351C1.97937 3.77554 0.777344 4.98657 0.777344 6.4113V17.6667C0.777344 19.0914 1.97937 20.3024 3.39351 20.3024H6.50463L12.0198 26.1438V20.3024H20.434C21.8481 20.3024 23.0501 19.0914 23.0501 17.6667V6.4113C23.0501 4.98657 21.9188 3.77554 20.434 3.77554Z" fill="#FFF4C7"/>
<path d="M33.0899 34.1223C33.3727 33.8374 33.3727 33.3387 33.0899 33.0538C32.807 32.7688 32.3121 32.7688 32.0293 33.0538C31.3929 33.6949 30.6151 34.0511 29.6959 34.0511C28.8474 34.0511 27.9989 33.6949 27.3626 33.0538C27.0797 32.7688 26.5848 32.7688 26.302 33.0538C26.0191 33.3387 26.0191 33.8374 26.302 34.1223C27.2212 35.0484 28.4232 35.547 29.6959 35.547C30.9686 35.547 32.1707 35.0484 33.0899 34.1223Z" fill="black"/>
<path d="M35.7782 27.9247V25.1465C35.7782 24.7191 35.4247 24.3629 35.0004 24.3629C34.5762 24.3629 34.2227 24.7191 34.2227 25.1465V27.9247C34.2227 28.3522 34.5762 28.7083 35.0004 28.7083C35.4247 28.7083 35.7782 28.3522 35.7782 27.9247Z" fill="black"/>
<path d="M25.1024 27.9247V25.1465C25.1024 24.7191 24.7489 24.3629 24.3247 24.3629C23.9004 24.3629 23.5469 24.7191 23.5469 25.1465V27.9247C23.5469 28.3522 23.9004 28.7083 24.3247 28.7083C24.7489 28.7083 25.1024 28.3522 25.1024 27.9247Z" fill="black"/>
<path d="M49.8486 2.63577C49.0709 1.85217 48.0103 1.35352 46.8789 1.35352C45.7476 1.35352 44.687 1.78093 43.9092 2.63577C43.6971 2.84948 43.5557 2.99196 43.4143 3.20567C42.6365 2.06588 41.3638 1.35352 39.9496 1.35352C37.8991 1.35352 36.1314 2.84948 35.7779 4.84411H25.3132C24.7476 4.84411 24.1819 4.91534 23.6162 5.05782C23.1213 3.8468 21.9193 2.99196 20.5051 2.99196H3.39395C1.48485 3.06319 0 4.55916 0 6.41131V17.6667C0 19.5188 1.48485 21.086 3.39395 21.086H6.15153L11.5253 26.6425C11.6667 26.785 11.8788 26.8562 12.0909 26.8562C12.1617 26.8562 12.3031 26.8562 12.3738 26.785C12.6566 26.6425 12.8687 26.3576 12.8687 26.0726V21.0148H16.9697V24.1492C14.9192 24.5054 13.3637 26.1438 13.3637 28.1385C13.3637 30.2043 15.0607 31.914 17.1819 32.1277C17.394 33.2675 17.7475 34.336 18.2425 35.4046C18.3839 35.6895 18.6667 35.832 18.9496 35.832C19.091 35.832 19.1617 35.832 19.3031 35.7608C19.6566 35.5471 19.8687 35.1196 19.6566 34.7635C18.9496 33.2675 18.596 31.5578 18.596 29.9194V24.9328V23.8643C20.3637 23.6506 21.5657 22.582 22.0607 20.8011C22.9799 20.3737 23.6162 19.5901 23.8991 18.5928H38.4648C38.5355 18.5928 38.5355 18.5928 38.6062 18.5928V20.6586C38.6062 22.2258 39.6668 23.5081 41.1516 23.8643V29.9906C41.1516 36.2594 36.0607 41.3885 29.8385 41.3885C26.3031 41.3885 23.0506 39.75 20.9294 36.9718C20.6465 36.6156 20.2223 36.5444 19.8687 36.8293C19.5152 37.1143 19.4445 37.5417 19.7273 37.8979C21.2122 39.8213 23.1213 41.1748 25.2425 42.0296V42.9557C25.2425 43.0269 25.2425 43.0981 25.2425 43.2406H20.7172C17.5354 43.2406 14.9192 45.8764 14.9192 49.082V50.8629C14.9192 51.2904 15.2728 51.6465 15.697 51.6465H43.9799C44.4042 51.6465 44.7577 51.2904 44.7577 50.8629V48.9395C44.7577 45.7339 42.1415 43.0981 38.9597 43.0981H34.4345C34.4345 43.0269 34.4345 42.9557 34.4345 42.8132V41.8871C38.5355 40.2487 41.6466 36.6156 42.4244 32.1277C44.5456 31.8428 46.2426 30.2043 46.2426 28.1385C46.2426 26.1438 44.687 24.5054 42.6365 24.1492V17.7379C43.4143 17.453 44.1213 17.168 44.8284 16.7406C46.6668 15.6721 48.2931 14.1049 49.4244 12.2527C49.6365 11.8965 49.4951 11.3979 49.1416 11.1842C48.788 10.9705 48.2931 11.1129 48.081 11.4691C46.0304 14.8885 42.4244 16.9543 38.4648 16.9543H23.8284V6.62502C24.3233 6.55379 24.8183 6.48255 25.3132 6.48255H36.4143C36.8385 6.48255 37.192 6.12637 37.192 5.69895C37.192 4.20298 38.3941 2.92072 39.9496 2.92072C41.4345 2.92072 42.7072 4.13174 42.7072 5.69895C42.7072 6.12637 43.0607 6.48255 43.485 6.48255C43.9092 6.48255 44.2628 6.12637 44.2628 5.69895C44.2628 4.98658 44.5456 4.27421 45.0405 3.77556C45.5355 3.2769 46.2426 2.99196 46.9496 2.99196C47.6567 2.99196 48.3638 3.2769 48.8587 3.77556C49.4244 4.34545 49.7072 5.05782 49.7072 5.84142C49.7072 7.19491 49.4244 8.47717 49.0002 9.75943C48.8587 10.1869 49.0709 10.6143 49.4244 10.7567C49.4951 10.7567 49.6365 10.828 49.7072 10.828C49.9901 10.828 50.2729 10.6143 50.4143 10.3293C50.98 8.90459 51.2628 7.40862 51.2628 5.91266C51.1214 4.6304 50.6264 3.49061 49.8486 2.63577ZM38.8183 44.6653C41.1516 44.6653 43.0607 46.5887 43.0607 48.9395V49.9369H16.3334V48.9395C16.3334 46.5887 18.2425 44.6653 20.5758 44.6653H25.4546C26.1617 46.375 27.788 47.5148 29.6971 47.5148C31.6062 47.5148 33.2324 46.3038 33.9395 44.6653H38.8183ZM32.8082 42.8844C32.8082 44.5941 31.394 46.0188 29.6971 46.0188C28.0001 46.0188 26.5859 44.5941 26.5859 42.8844V42.457C27.5758 42.6707 28.6365 42.8132 29.6971 42.8132C30.7577 42.8132 31.8183 42.6707 32.8082 42.457V42.8844ZM44.6163 28.2097C44.6163 29.3495 43.6971 30.3468 42.4951 30.6317C42.4951 30.418 42.4951 30.2043 42.4951 29.9194V25.7877C43.6971 26.0726 44.6163 27.0699 44.6163 28.2097ZM41.0102 22.2258C40.4446 21.9409 40.0203 21.2998 40.0203 20.5874V18.4503C40.3739 18.3791 40.7274 18.3791 41.0102 18.3078V22.2258ZM12.0202 19.5901C11.596 19.5901 11.2425 19.9463 11.2425 20.3737V24.2917L7.00002 19.8038C6.85861 19.6613 6.64649 19.5901 6.43436 19.5901H3.39395C2.40405 19.5901 1.55556 18.7352 1.55556 17.7379V6.41131C1.55556 5.414 2.40405 4.55916 3.39395 4.55916H20.5051C21.495 4.55916 22.3435 5.414 22.3435 6.41131V17.6667C22.3435 18.664 21.495 19.5188 20.5051 19.5188H12.0202V19.5901ZM14.7778 28.2097C14.7778 27.0699 15.697 26.0726 16.899 25.7877V29.9194C16.899 30.1331 16.899 30.3468 16.899 30.6317C15.697 30.3468 14.7778 29.3495 14.7778 28.2097ZM18.3839 22.2971V21.086H20.0809C19.7273 21.7984 19.1617 22.1546 18.3839 22.2971Z" fill="black"/>
<path d="M10.0414 11.754C9.82926 11.1129 8.91007 11.1129 8.62724 11.754C8.48582 12.039 8.62724 12.4664 8.83936 12.6801C9.12219 12.8938 9.47572 12.8938 9.68785 12.7513C10.0414 12.5376 10.1828 12.1102 10.0414 11.754Z" fill="black"/>
<path d="M12.5852 11.7541C12.3024 11.113 11.3832 11.1842 11.171 11.7541C11.1003 12.039 11.171 12.3952 11.3832 12.6089C11.5953 12.8226 12.0195 12.8226 12.2317 12.6802C12.6559 12.5377 12.7266 12.1103 12.5852 11.7541Z" fill="black"/>
<path d="M15.2024 11.754C15.1317 11.469 14.8488 11.3266 14.566 11.2553C14.2125 11.2553 13.9296 11.469 13.7882 11.754C13.7175 12.0389 13.7882 12.3951 14.0004 12.6088C14.2832 12.8225 14.6367 12.8225 14.9196 12.6801C15.2024 12.5376 15.3438 12.1102 15.2024 11.754Z" fill="black"/>
</svg>
