<svg width="53" height="53" viewBox="0 0 53 53" fill="none" xmlns="http://www.w3.org/2000/svg">
<path d="M26.5 53C41.1355 53 53 41.1355 53 26.5C53 11.8645 41.1355 0 26.5 0C11.8645 0 0 11.8645 0 26.5C0 41.1355 11.8645 53 26.5 53Z" fill="#20A5D3"/>
<path d="M48.8675 44.9502H4.05969C2.70619 44.9502 1.56641 43.8104 1.56641 42.4569V14.3897C1.56641 13.0362 2.70619 11.8964 4.05969 11.8964H48.7963C50.1497 11.8964 51.2895 13.0362 51.2895 14.3897V42.4569C51.3608 43.8104 50.221 44.9502 48.8675 44.9502Z" fill="#FFD348"/>
<path d="M4.62865 42.4569V14.3897C4.62865 13.0362 5.76844 11.8964 7.12193 11.8964H4.13C2.7765 11.8964 1.63672 13.0362 1.63672 14.3897V42.4569C1.63672 43.8104 2.7765 44.9502 4.13 44.9502H7.12193C5.6972 44.9502 4.62865 43.8104 4.62865 42.4569Z" fill="#F0C556"/>
<path d="M26.4978 12.4663C19.7303 8.47705 12.5355 7.33727 4.98438 8.40582V40.8185C11.3244 41.1034 26.4978 44.8789 26.4978 44.8789C34.3338 42.4569 41.6712 41.1034 48.0113 40.8185V8.47706C40.4602 7.33727 33.2653 8.47705 26.4978 12.4663Z" fill="#98D9D5"/>
<path d="M8.26126 8.12091C7.19271 8.19215 6.12416 8.26338 4.98438 8.47709V40.8897C5.91045 40.961 6.979 41.0322 8.19002 41.1747C8.19002 41.1034 8.26126 8.19215 8.26126 8.12091Z" fill="#84BDB9"/>
<path d="M26.4991 16.2419C21.5126 13.3212 16.2411 12.4663 10.7559 13.2499V37.0429C15.3862 37.2566 26.4991 40.0349 26.4991 40.0349C32.1981 38.254 37.612 37.2566 42.2424 37.0429V13.2499C36.686 12.4663 31.4145 13.3212 26.4991 16.2419Z" fill="#60D88B"/>
<path d="M13.82 12.965C12.8226 12.965 11.7541 13.1074 10.6855 13.2499V37.0429C11.5404 37.1142 12.5377 37.1854 13.6775 37.3991C13.7487 37.2566 13.82 13.1074 13.82 12.965Z" fill="#3ECE6E"/>
<path d="M48.868 11.1841H48.7255V8.47713C48.7255 8.12094 48.4406 7.76476 48.0844 7.76476C44.1664 7.19487 40.3908 7.19486 36.829 7.90723C33.4097 8.54836 30.1328 9.68815 26.9984 11.3978C26.8559 11.2553 26.7134 11.1841 26.4997 11.1841C26.286 11.1841 26.1435 11.2553 26.001 11.3978C22.2967 9.33196 18.3075 8.0497 14.247 7.55105C13.8196 7.47981 13.4634 7.76476 13.3922 8.19218C13.3209 8.6196 13.6059 8.97578 14.0333 9.04702C18.0938 9.54568 22.0118 10.8279 25.7161 12.965V14.9597C21.0857 12.5376 16.0279 11.754 10.614 12.5376C10.2578 12.6088 9.97282 12.8938 9.97282 13.25V37.043C9.97282 37.4704 10.2578 37.7553 10.6852 37.8266C14.6032 37.9691 23.3653 40.1062 25.7161 40.6048V43.9529C22.4392 43.1693 11.4688 40.6048 5.69863 40.1774V9.11826C7.40831 8.90455 9.18922 8.76207 10.8277 8.83331C11.2551 8.83331 11.54 8.47713 11.6113 8.12094C11.6113 7.69352 11.2551 7.33734 10.8989 7.33734C8.97551 7.33734 6.90965 7.40858 4.91503 7.76476C4.55885 7.836 4.2739 8.12094 4.2739 8.47713V11.1841H4.13143C2.35051 11.1841 0.925781 12.6088 0.925781 14.3898V42.457C0.925781 44.2379 2.35051 45.6626 4.13143 45.6626H42.5279C42.9553 45.6626 43.3115 45.3064 43.3115 44.879C43.3115 44.4516 42.9553 44.0954 42.5279 44.0954H31.9137C37.6126 42.6707 43.0978 41.7446 48.0131 41.5309C48.4406 41.5309 48.7255 41.1747 48.7255 40.7473V12.5376H48.868C49.7941 12.5376 50.5777 13.3212 50.5777 14.2473V42.3145C50.5777 43.2406 49.7941 44.0242 48.868 44.0242H45.5199C45.0924 44.0242 44.7363 44.3803 44.7363 44.8078C44.7363 45.2352 45.0924 45.5914 45.5199 45.5914H48.868C50.6489 45.5914 52.0736 44.1666 52.0736 42.3857V14.3185C52.0736 12.6088 50.6489 11.1841 48.868 11.1841ZM27.2121 16.6693C31.6287 14.176 36.2591 13.25 41.4594 13.9623V36.3306C37.114 36.6156 32.2699 37.5416 27.2121 39.0376V16.6693ZM11.4688 36.3306V13.9623C16.6691 13.3212 21.2994 14.2473 25.7161 16.6693V39.0376C23.0804 38.3965 15.6005 36.6868 11.4688 36.3306ZM4.06019 44.1666C3.13411 44.1666 2.35051 43.383 2.35051 42.457V14.3898C2.35051 13.4637 3.13411 12.6801 4.06019 12.6801H4.20266V40.8898C4.20266 41.3172 4.48761 41.6021 4.91503 41.6734C8.47686 41.8158 14.9594 43.1693 19.8747 44.2379H4.06019V44.1666ZM47.2295 40.1774C41.1744 40.5336 34.3357 41.8158 27.2121 43.9529V40.6048C32.5548 38.9664 37.7551 38.0403 42.243 37.8266C42.6704 37.8266 42.9553 37.4704 42.9553 37.043V13.25C42.9553 12.8938 42.6704 12.5376 42.3142 12.5376C36.9002 11.754 31.8424 12.5376 27.2121 14.9597V12.965C30.3465 11.1841 33.6234 9.97309 37.0427 9.33196C40.2484 8.76207 43.6677 8.69084 47.1583 9.11826V40.1774H47.2295Z" fill="black"/>
<path d="M39.0354 19.9461C35.901 20.8722 32.6954 21.5133 29.4897 21.727C29.0623 21.727 28.7773 22.0832 28.7773 22.5106C28.7773 22.938 29.1335 23.223 29.5609 23.223C29.5609 23.223 29.5609 23.223 29.6322 23.223C32.9803 23.0093 36.3284 22.3682 39.5341 21.3708C39.9615 21.2284 40.1752 20.801 40.0327 20.4448C39.8902 20.0174 39.4628 19.8036 39.0354 19.9461Z" fill="black"/>
<path d="M39.0354 24.8615C35.901 25.7876 32.6954 26.4287 29.4897 26.6424C29.0623 26.6424 28.7773 26.9986 28.7773 27.426C28.7773 27.8534 29.1335 28.1384 29.5609 28.1384C29.5609 28.1384 29.5609 28.1384 29.6322 28.1384C32.9803 27.9247 36.3284 27.2835 39.5341 26.2862C39.9615 26.1437 40.1752 25.7163 40.0327 25.3601C39.8902 25.004 39.4628 24.7903 39.0354 24.8615Z" fill="black"/>
<path d="M39.0354 29.848C35.901 30.7741 32.6954 31.4152 29.4897 31.629C29.0623 31.629 28.7773 31.9851 28.7773 32.4126C28.7773 32.84 29.1335 33.1249 29.5609 33.1249C29.5609 33.1249 29.5609 33.1249 29.6322 33.1249C32.9803 32.9112 36.3284 32.2701 39.5341 31.2728C39.9615 31.1303 40.1752 30.7029 40.0327 30.3467C39.8902 29.9193 39.4628 29.7056 39.0354 29.848Z" fill="black"/>
<path d="M23.4357 21.6559C20.1588 21.4422 16.9531 20.801 13.89 19.875C13.4625 19.7325 13.1064 19.9462 12.9639 20.3736C12.8214 20.801 13.0351 21.1572 13.4625 21.2997C16.6682 22.297 20.0163 22.8669 23.3644 23.1518C23.3644 23.1518 23.3644 23.1518 23.4357 23.1518C23.8631 23.1518 24.148 22.8669 24.2193 22.4395C24.2193 22.0833 23.8631 21.7271 23.4357 21.6559Z" fill="black"/>
<path d="M23.4357 26.6423C20.1588 26.4286 16.9531 25.7875 13.89 24.8614C13.4625 24.7189 13.1064 24.9326 12.9639 25.3601C12.8214 25.7875 13.0351 26.1437 13.4625 26.2861C16.6682 27.2834 20.0163 27.8533 23.3644 28.1383C23.3644 28.1383 23.3644 28.1383 23.4357 28.1383C23.8631 28.1383 24.148 27.8533 24.2193 27.4259C24.2193 27.0697 23.8631 26.7135 23.4357 26.6423Z" fill="black"/>
<path d="M23.4357 31.629C20.1588 31.4152 16.9531 30.7741 13.89 29.848C13.4625 29.7056 13.1064 29.9193 12.9639 30.3467C12.8214 30.7741 13.0351 31.1303 13.4625 31.2728C16.6682 32.2701 20.0163 32.84 23.3644 33.1249C23.3644 33.1249 23.3644 33.1249 23.4357 33.1249C23.8631 33.1249 24.148 32.84 24.2193 32.4126C24.2193 31.9851 23.8631 31.629 23.4357 31.629Z" fill="black"/>
</svg>
