<svg width="53" height="53" viewBox="0 0 53 53" fill="none" xmlns="http://www.w3.org/2000/svg">
<path d="M26.5 53C41.1355 53 53 41.1355 53 26.5C53 11.8645 41.1355 0 26.5 0C11.8645 0 0 11.8645 0 26.5C0 41.1355 11.8645 53 26.5 53Z" fill="#60D88B"/>
<path d="M45.8037 38.3966V47.5861C45.8037 49.7232 44.0228 51.5041 41.8857 51.5041H11.8951C10.0429 51.5041 8.47572 50.4356 7.76336 48.9396C7.47841 48.3697 7.33594 47.6574 7.33594 46.945C7.33594 45.6627 7.83459 41.1036 8.68943 40.32C9.54427 39.4652 10.6841 38.9665 11.8951 38.9665H41.8857C42.3843 38.9665 42.883 38.8953 43.3104 38.6816C44.7351 38.1117 45.8037 40.1063 45.8037 38.3966Z" fill="#E53333"/>
<path d="M43.3113 38.4678V47.1587C43.3113 48.0848 42.5277 48.8684 41.6016 48.8684H7.69304C7.4081 48.2985 7.26562 47.5861 7.26562 46.8737V38.1116L43.3113 38.4678Z" fill="#E6E6E6"/>
<path d="M45.8037 5.48533V38.3966C45.8037 40.0351 44.8064 41.4598 43.3104 42.0297C42.883 42.1722 42.3843 42.3146 41.8857 42.3146H11.8951C10.6128 42.3146 9.47304 42.8133 8.68943 43.6681C7.83459 44.523 7.33594 45.6628 7.33594 46.8738V6.12646C7.33594 3.56195 9.4018 1.56732 11.8951 1.56732H41.8857C44.0228 1.56732 45.8037 3.34824 45.8037 5.48533Z" fill="#FF4A4A"/>
<path d="M10.6137 1.70972C8.69035 2.27961 7.26562 4.06052 7.26562 6.12638V46.8737C7.26562 45.5914 7.76428 44.4517 8.61912 43.668C9.18901 43.0982 9.83013 42.742 10.6137 42.5283V1.70972Z" fill="#E53333"/>
<path d="M40.1074 21.2998C40.1074 27.9248 34.7646 33.2675 28.1396 33.2675C21.5146 33.2675 16.1719 27.9248 16.1719 21.2998C16.1719 14.6748 21.5146 9.2608 28.1396 9.2608C34.7646 9.2608 40.1074 14.6748 40.1074 21.2998Z" fill="#E6E6E6"/>
<path d="M45.805 33.1251C45.3776 33.1251 45.0214 33.4813 45.0214 33.9087V38.3966C45.0214 39.6788 44.2378 40.8186 43.0268 41.3173C42.6706 41.4598 42.2432 41.531 41.887 41.531H11.8964C10.4717 41.531 9.11817 42.1009 8.12086 43.0982C8.12086 43.0982 8.12086 43.0982 8.04962 43.1694V12.8939C8.04962 12.4665 7.69344 12.1103 7.26602 12.1103C6.8386 12.1103 6.48242 12.4665 6.48242 12.8939V46.945C6.48242 47.7286 6.69613 48.5122 6.98108 49.2958C7.83591 51.1479 9.7593 52.2877 11.8252 52.2877H41.8158C44.3803 52.2877 46.5174 50.2219 46.5174 47.5861V43.7393C46.5174 43.3119 46.1612 42.9557 45.7338 42.9557C45.3063 42.9557 44.9502 43.3119 44.9502 43.7393V47.5861C44.9502 49.2958 43.5254 50.7205 41.8158 50.7205H11.8252C10.4004 50.7205 9.04694 49.8657 8.40581 48.5834C8.12086 48.0848 8.04962 47.5149 8.04962 46.945C8.04962 45.9477 8.47704 44.9503 9.18941 44.238C9.90177 43.5256 10.8991 43.0982 11.8964 43.0982H41.887C42.4569 43.0982 43.098 42.9557 43.5967 42.742C45.3776 42.0296 46.5886 40.32 46.5886 38.3966V33.9087C46.5174 33.4813 46.2324 33.1251 45.805 33.1251Z" fill="black"/>
<path d="M41.8861 0.78363H11.8955C8.97478 0.78363 6.55273 3.20567 6.55273 6.12637V9.83067C6.55273 10.2581 6.90892 10.6143 7.33634 10.6143C7.76375 10.6143 8.11994 10.2581 8.11994 9.83067V6.12637C8.11994 3.98928 9.82961 2.2796 11.9667 2.2796H41.9573C43.667 2.2796 45.0917 3.70433 45.0917 5.41401V31.3441C45.0917 31.7715 45.4479 32.1277 45.8753 32.1277C46.3027 32.1277 46.6589 31.7715 46.6589 31.3441V5.48524C46.5164 2.92073 44.4506 0.78363 41.8861 0.78363Z" fill="black"/>
<path d="M10.9008 49.6519H41.5325C42.886 49.6519 44.0258 48.5121 44.0258 47.1586V44.8791C44.0258 44.4516 43.6696 44.0955 43.2422 44.0955C42.8148 44.0955 42.4586 44.4516 42.4586 44.8791V47.1586C42.4586 47.6573 42.0312 48.0847 41.5325 48.0847H10.9008C10.4734 48.0847 10.1172 48.4409 10.1172 48.8683C10.1884 49.367 10.4734 49.6519 10.9008 49.6519Z" fill="black"/>
<path d="M10.9008 46.5175H40.6064C41.0339 46.5175 41.39 46.1613 41.39 45.7339C41.39 45.3065 41.0339 44.9503 40.6064 44.9503H10.9008C10.4734 44.9503 10.1172 45.3065 10.1172 45.7339C10.1172 46.1613 10.4734 46.5175 10.9008 46.5175Z" fill="black"/>
<path d="M40.8894 21.2998C40.8894 14.2474 35.1905 8.54846 28.1381 8.54846C21.0856 8.54846 15.3867 14.2474 15.3867 21.2998C15.3867 28.3522 21.0856 34.0511 28.1381 34.0511C35.1193 34.0511 40.8894 28.3522 40.8894 21.2998ZM16.8827 21.2998C16.8827 15.1022 21.9405 10.0444 28.1381 10.0444C34.3356 10.0444 39.3934 15.1022 39.3934 21.2998C39.3934 27.4974 34.3356 32.5552 28.1381 32.5552C21.9405 32.5552 16.8827 27.4974 16.8827 21.2998Z" fill="black"/>
<path d="M29.4923 28.3522C29.4923 27.8536 29.2786 27.3549 28.9224 26.9987C28.5663 26.6425 28.0676 26.4288 27.569 26.4288C26.5716 26.4288 25.7168 27.2837 25.7168 28.281C25.7168 29.3495 26.5716 30.1331 27.569 30.1331C28.0676 30.1331 28.5663 29.9194 28.9224 29.5632C29.2786 29.3495 29.4923 28.8509 29.4923 28.3522Z" fill="#FFD348"/>
<path d="M27.8549 15.1023C28.9234 15.1023 29.992 15.5297 29.992 16.7407C29.992 17.8093 29.1371 18.5216 28.2823 19.0915C28.1398 19.234 27.9261 19.3765 27.7836 19.4477C27 20.0888 26.1452 21.0861 26.1452 23.152C26.1452 24.363 26.5014 24.7904 27.4987 24.7904C28.1398 24.7904 28.9234 24.648 28.9234 23.7931C28.9234 22.5821 28.9234 21.7985 30.2769 20.8012C30.5619 20.5875 31.2742 20.0176 31.9154 19.234C32.6277 18.3079 33.0552 17.3106 33.0552 16.3133C33.0552 15.1735 32.5565 14.1762 31.6304 13.4638C30.7043 12.6802 29.3508 12.324 27.8549 12.324C26.0027 12.324 24.8629 12.9652 24.2218 13.4638C23.5095 14.0337 23.082 14.8886 23.082 15.6009C23.082 16.1708 23.367 16.4558 23.5807 16.6695C23.8656 16.8832 24.2218 17.0256 24.578 17.0256C25.1479 17.0256 25.3616 16.6695 25.6466 16.3133C26.0027 15.7434 26.4301 15.1023 27.8549 15.1023Z" fill="#FFD348"/>
<path d="M27.5693 30.988C26.1446 30.988 24.9336 29.777 24.9336 28.3522C24.9336 26.9275 26.1446 25.7165 27.5693 25.7165C28.2817 25.7165 28.9228 26.0014 29.4215 26.5001C29.9201 26.9988 30.2051 27.6399 30.2051 28.3522C30.2051 29.0646 29.9201 29.7057 29.4215 30.2044C28.9941 30.7031 28.2817 30.988 27.5693 30.988ZM27.5693 27.2125C26.9994 27.2125 26.5008 27.7111 26.5008 28.3522C26.5008 28.9934 26.9994 29.492 27.5693 29.492C27.8543 29.492 28.1392 29.3496 28.3529 29.1358C28.5667 28.9221 28.7091 28.6372 28.7091 28.3522C28.7091 28.0673 28.5667 27.7824 28.3529 27.5686C28.1392 27.3549 27.9255 27.2125 27.5693 27.2125Z" fill="black"/>
<path d="M27.5693 25.574C25.7172 25.574 25.4322 24.2917 25.4322 23.152C25.4322 20.8012 26.5008 19.5901 27.3556 18.8778C27.4981 18.7353 27.7118 18.5928 27.8542 18.4504C28.7091 17.8092 29.2077 17.3106 29.2077 16.6694C29.2077 15.8858 28.2104 15.8146 27.783 15.8146C26.7857 15.8146 26.572 16.1708 26.2158 16.5982C25.9309 17.0256 25.5034 17.6667 24.5061 17.6667C24.0075 17.6667 23.4376 17.453 23.0102 17.1681C22.5115 16.7407 22.2266 16.1708 22.2266 15.5297C22.2266 14.6036 22.7965 13.535 23.6513 12.8227C24.3637 12.2528 25.6459 11.5404 27.783 11.5404C29.4927 11.5404 30.9174 11.9678 31.986 12.8227C33.1258 13.6775 33.6957 14.9598 33.6957 16.3133C33.6957 17.453 33.2682 18.5928 32.4134 19.6614C31.701 20.5162 30.9887 21.1573 30.7037 21.3711C29.6352 22.2259 29.6352 22.6533 29.6352 23.7931C29.7776 24.6479 29.2077 25.574 27.5693 25.574ZM27.8542 14.3186C29.6352 14.3186 30.7749 15.3159 30.7749 16.7407C30.7749 18.1654 29.6352 19.0915 28.7803 19.7326C28.6378 19.8751 28.4241 19.9463 28.3529 20.0888C27.7118 20.6587 26.9994 21.5135 26.9994 23.2232C26.9994 23.8643 27.0706 24.0068 27.1419 24.0068C27.1419 24.0068 27.2844 24.078 27.6405 24.078C27.9967 24.078 28.2104 24.0068 28.2817 24.0068C28.3529 24.0068 28.3529 23.9356 28.3529 23.8643C28.3529 22.5821 28.3529 21.5135 29.9913 20.2313C30.2763 20.0176 30.9174 19.5189 31.4873 18.8065C32.1284 18.0229 32.4134 17.1681 32.4134 16.3845C32.4134 15.5297 31.986 14.6748 31.2736 14.1049C30.49 13.4638 29.3502 13.1076 27.9967 13.1076C26.3583 13.1076 25.361 13.6063 24.8623 14.1049C24.2924 14.5323 24.0075 15.1735 24.0075 15.6721C24.0075 15.8858 24.0787 16.0283 24.2212 16.0995C24.3637 16.1708 24.5061 16.242 24.7198 16.242C24.8623 16.242 24.8623 16.242 25.1473 15.8858C25.4322 15.2447 26.0021 14.3186 27.8542 14.3186Z" fill="black"/>
</svg>
