<svg width="53" height="53" viewBox="0 0 53 53" fill="none" xmlns="http://www.w3.org/2000/svg">
<path d="M26.5 53C41.1355 53 53 41.1355 53 26.5C53 11.8645 41.1355 0 26.5 0C11.8645 0 0 11.8645 0 26.5C0 41.1355 11.8645 53 26.5 53Z" fill="#FFD348"/>
<path d="M28.9213 9.54579V23.2944C28.9213 25.0754 27.4965 26.5001 25.7156 26.5001H15.8137L8.97501 33.6238V26.5001H4.77205C2.99114 26.5001 1.56641 25.0754 1.56641 23.2944V9.54579C1.56641 7.76488 2.99114 6.34015 4.77205 6.34015H25.7868C27.4965 6.34015 28.9213 7.76488 28.9213 9.54579Z" fill="#E6E6E6"/>
<path d="M28.9213 20.2312V23.2944C28.9213 25.0753 27.4965 26.5 25.7156 26.5H21.4414V23.4368C21.4414 21.6559 22.8661 20.2312 24.6471 20.2312H28.9213Z" fill="#CCCCCC"/>
<path d="M48.2986 22.8669H27.2838C25.5029 22.8669 24.0781 24.2917 24.0781 26.0726V39.8212C24.0781 41.6022 25.5029 43.0269 27.2838 43.0269H37.1857L44.0244 50.1505V43.0269H48.2273C50.0082 43.0269 51.433 41.6022 51.433 39.8212V26.0726C51.5042 24.2917 50.0082 22.8669 48.2986 22.8669Z" fill="#FF4A4A"/>
<path d="M48.2988 22.0833H29.7061V9.54572C29.7061 7.33738 27.9252 5.55646 25.7168 5.55646H8.3351C7.90768 5.55646 7.5515 5.91265 7.5515 6.34007C7.5515 6.76749 7.90768 7.12367 8.3351 7.12367H25.7168C27.0703 7.12367 28.1389 8.19222 28.1389 9.54572V22.0833H27.2128C25.1469 22.0833 23.4373 23.7218 23.2235 25.7164H15.6725C15.4588 25.7164 15.245 25.7877 15.1026 25.9301L9.54612 31.629V26.4288C9.54612 26.0014 9.18994 25.6452 8.76252 25.6452H4.55956C3.20606 25.6452 2.13752 24.5766 2.13752 23.2231V9.47448C2.13752 8.12098 3.20606 7.05244 4.55956 7.05244H5.62811C6.05553 7.05244 6.41172 6.69625 6.41172 6.26883C6.41172 5.84141 6.05553 5.48523 5.62811 5.48523H4.55956C2.35123 5.48523 0.570312 7.26614 0.570312 9.47448V23.2231C0.570312 25.4315 2.35123 27.2124 4.55956 27.2124H7.97892V33.5524C7.97892 33.8374 8.19263 34.1223 8.47757 34.2648C8.54881 34.336 8.69128 34.336 8.76252 34.336C8.97623 34.336 9.18994 34.2648 9.33241 34.1223L15.9574 27.2836H23.2948V36.7581C23.2948 37.1855 23.651 37.5417 24.0784 37.5417C24.5058 37.5417 24.862 37.1855 24.862 36.7581V26.0014C24.862 24.6479 25.9305 23.5793 27.284 23.5793H48.2988C49.6523 23.5793 50.7209 24.6479 50.7209 26.0014V39.75C50.7209 41.1035 49.6523 42.1721 48.2988 42.1721H44.0959C43.6684 42.1721 43.3123 42.5282 43.3123 42.9557V48.1559L37.7558 42.457C37.6133 42.3145 37.3996 42.2433 37.1859 42.2433H27.284C25.9305 42.2433 24.862 41.1747 24.862 39.8213V39.3226C24.862 38.8952 24.5058 38.539 24.0784 38.539C23.651 38.539 23.2948 38.8952 23.2948 39.3226V39.8213C23.2948 42.0296 25.0757 43.8105 27.284 43.8105H36.901L43.526 50.6492C43.6684 50.7917 43.8822 50.8629 44.0959 50.8629C44.1671 50.8629 44.3096 50.8629 44.3808 50.7917C44.6658 50.6492 44.8795 50.3643 44.8795 50.0793V43.7393H48.2988C50.5072 43.7393 52.2881 41.9583 52.2881 39.75V26.0014C52.2168 23.8643 50.4359 22.0833 48.2988 22.0833Z" fill="black"/>
<path d="M24.008 11.9678H6.41251C5.98509 11.9678 5.62891 12.324 5.62891 12.7514C5.62891 13.1788 5.98509 13.535 6.41251 13.535H24.008C24.4354 13.535 24.7916 13.1788 24.7916 12.7514C24.7916 12.324 24.4354 11.9678 24.008 11.9678Z" fill="black"/>
<path d="M24.008 15.7433H6.41251C5.98509 15.7433 5.62891 16.0995 5.62891 16.5269C5.62891 16.9544 5.98509 17.3105 6.41251 17.3105H24.008C24.4354 17.3105 24.7916 16.9544 24.7916 16.5269C24.7916 16.0995 24.4354 15.7433 24.008 15.7433Z" fill="black"/>
<path d="M24.008 19.4476H6.41251C5.98509 19.4476 5.62891 19.8038 5.62891 20.2312C5.62891 20.6586 5.98509 21.0148 6.41251 21.0148H24.008C24.4354 21.0148 24.7916 20.6586 24.7916 20.2312C24.7916 19.8038 24.4354 19.4476 24.008 19.4476Z" fill="black"/>
<path d="M28.9945 29.9194H46.59C47.0174 29.9194 47.3736 29.5632 47.3736 29.1358C47.3736 28.7084 47.0174 28.3522 46.59 28.3522H28.9945C28.5671 28.3522 28.2109 28.7084 28.2109 29.1358C28.2109 29.5632 28.5671 29.9194 28.9945 29.9194Z" fill="black"/>
<path d="M28.9945 33.6237H46.59C47.0174 33.6237 47.3736 33.2675 47.3736 32.8401C47.3736 32.4126 47.0174 32.0565 46.59 32.0565H28.9945C28.5671 32.0565 28.2109 32.4126 28.2109 32.8401C28.2109 33.2675 28.5671 33.6237 28.9945 33.6237Z" fill="black"/>
<path d="M28.9945 37.3992H46.59C47.0174 37.3992 47.3736 37.043 47.3736 36.6156C47.3736 36.1882 47.0174 35.832 46.59 35.832H28.9945C28.5671 35.832 28.2109 36.1882 28.2109 36.6156C28.2109 37.043 28.5671 37.3992 28.9945 37.3992Z" fill="black"/>
</svg>
